<?xml version="1.0" encoding="utf-8"?>
<svg version="1.1" xmlns="http://www.w3.org/2000/svg" xmlns:xlink="http://www.w3.org/1999/xlink" x="0px" y="0px"
	 viewBox="0 0 400 310" enable-background="new 0 0 400 310" xml:space="preserve">
<g id="Layer_1" opacity="0.4">
	<path fill="none" stroke="#808080" stroke-width="0.25" stroke-linecap="round" stroke-linejoin="round" stroke-miterlimit="10" d="
		M400.3,31.4c-1.7-3.9-4.2-7.4-6.3-11c-3-5.1-6.5-9.8-11.8-12.8c-3.9-2.2-8.1-3.4-12.6-4c-4.5-0.6-9.1-0.8-13.6,0.3
		c-7.6,1.8-11.4,7.4-14.3,14c-1.9,4.4-2.5,9.2-4.5,13.6c-2,4.5-5.2,6.6-9.1,5.2c-2.2-0.8-4-2.3-5.6-4.2c-2.8-3.2-4.5-7-6.4-10.6
		c-4.1-7.9-11-11.2-19.2-12.5c-4.6-0.7-9.3-1-14.1-0.1c-8.1,1.5-13.7,6.4-17.6,13.4c-4.9,8.8-3,17,2.5,24.9
		c3.3,4.8,6.7,9.4,9.6,14.5c4.5,7.9,2.5,16.6-3.1,22.4c-3.7,3.9-8.2,6.6-13.1,8.8c-3.2,1.4-6.2,3.3-9.1,5.2c-5.3,3.6-5.7,9-5.2,14.6
		c0.6,7.5,1.3,15-0.8,22.4c-1.2,4.2-3.2,7.9-5.9,11.3c-2.8,3.5-5.9,6.7-9.5,9.6c-6.3,5.1-13.2,5.4-20.1,2.4
		c-9.6-4.3-17.7-10.6-22.6-20.2c-1.8-3.6-2.6-7.5-2.8-11.5c-0.4-7,0.7-13.9-0.5-20.9c-1.4-8.4-2.8-16.8-6.6-24.6
		c-1.3-2.8-2.8-5.5-4.5-8c-2.9-4.3-7.6-5.3-12.3-5.5c-4.5-0.2-8.2-2.1-11.3-5.1c-1.4-1.4-3-2.4-4.6-3.5c-3.5-2.3-7.1-1.1-9.5,3
		c-0.7,1.2-1.1,2.5-1.6,3.7c-1.5,3.8-4.2,6.7-7.7,8.8c-5,3.1-7.7,7.8-8.8,13.5C117,94,114.7,99,110.6,103c-1.6,1.6-2.9,3.4-3.8,5.5
		c-3.9,9.4-13.4,10.8-21.6,7.3c-4.5-2-7.7-5.5-10.3-9.5c-3.1-4.7-6-9.5-9.1-14.3c-2.6-4.1-6.3-6.8-11.1-7.5
		c-8.1-1.1-15.2,1.3-21.3,6.7c-5.8,5.2-8.7,11.7-8.8,19.6c0,3.4-0.3,6.9-0.8,10.3c-0.7,4.9-3.7,7.8-8.5,9.1
		c-2.9,0.7-5.8,1.3-8.5,2.5c-3.9,1.7-6.2,4.6-7,8.8"/>
	<path fill="none" stroke="#808080" stroke-width="0.25" stroke-linecap="round" stroke-linejoin="round" stroke-miterlimit="10" d="
		M400.3,201.2c-4,4.8-8,9.6-12.1,14.3c-4.3,5-8.6,10-10.8,16.4c-1.1,3.3-1.9,6.8-3.3,10c-3.2,7.8-8.7,13.1-16.6,15.8
		c-4.7,1.6-8,4.4-10.3,8.8c-1.6,2.9-2.6,6.1-3.9,9.1c-1.5,3.6-3.6,6.9-6.3,9.8c-3,3.1-7.1,3.7-11.1,4.5c-4.7,0.9-5.7,2.3-5.3,6
		c0.2,2.8-0.8,4.1-4.5,5.5c-2,0.7-3.8,1.5-5.3,3.1c-1.7,1.9-4.9,1.4-6.5,0.5c-1.8-1-1.4-2.9-1.2-4.5c0.2-1.5,0.7-3,1-4.5
		c0.5-2.7,0.1-4.2-1.8-5.3c-2.1-1.2-3.6-0.9-5.5,1.3c-2.4,2.6-3.7,5.9-5.3,9c-1.5,2.9-2.9,5.7-5,8.3c-4.6,5.8-12.3,6.4-17.9,3.7
		c-2.2-1.1-3.4-3.5-2.8-5.3c0.6-1.6,2.4-2.4,5-2c0.9,0.1,1.9,0.3,2.8,0.5c3.3,0.8,5.8-0.3,7.8-3c2.8-3.8,2.2-7.3-1.5-10.3
		c-2-1.7-4.5-3.5-3.5-6.7c0.7-2.2,2.6-3.5,4.4-4.8c2.7-2,5.8-3.5,8.1-6c0.6-0.7,1.3-1.4,1.7-2.3c1.2-2.2,0-4.1-2.5-4.3
		c-4.1-0.3-7.8,1-11.3,2.8c-7,3.7-14.3,5.1-22.1,3.7c-2.3-0.4-4.2-1.7-6-3c-2.1-1.4-4-3.2-6.5-4c-4.6-1.5-8.3,0.8-9.1,5.5
		c-0.8,4.7-0.2,9.4,0.3,14.1c0.2,1.6,0.5,3.3,0.1,4.8c-1.5,5.3-5,6-10.2,4.2c-3.6-1.3-6.7-3.7-9.8-5.9c-2.8-1.9-5.6-3.8-9-4.6
		c-4-1-7.5-0.3-10.8,1.8c-2.2,1.4-4.3,3-6.6,4.2c-3.4,1.8-7,2.3-10.5,0.3c-1.3-0.7-2.7-1.3-4-2c-2.1-1.1-4.3-1.7-6.5-1
		c-4.7,1.5-9.5,2.1-14.3,2.6c-5.9,0.7-10.7,3.3-14.8,7.4c-3,2.9-5,4.4-10.8,1.5c-2.7-1.4-5.6-1.6-8,0.3c-3.3,2.7-7.2,3.6-11.1,4.4
		c-3.1,0.6-5.4,2-6.8,5c-1.6,3.4-2.8,3.7-5.5,1.2c-3.6-3.4-8.1-4.6-12.6-5.2c-8.3-1.1-16.5,0.4-24.6,2.5c-3.3,0.9-6.6,2.4-8.5,5.3
		c-2.8,4.3-6.3,4.2-10.4,3c-4.1-1.2-8.2-2.3-12.3-3.3c-3.9-0.9-7.6,0.1-11,2c-1.1,0.6-2.3,1.2-3.2,2c-3.9,3.6-8,1.9-12.1,0.7
		c-0.1,0-0.2-0.3-0.3-0.5"/>
	<path fill="none" stroke="#808080" stroke-width="0.25" stroke-linecap="round" stroke-linejoin="round" stroke-miterlimit="10" d="
		M-0.2,307c2.9-0.3,5.7,0.3,8.5,0.5c1.5,0.1,2.7-0.2,3.8-1.3c4-4,9.2-4.8,14.3-4.2c6.1,0.7,11.7,0.1,17.1-2.6
		c3.8-1.9,7.9-2.5,12.1-2c4,0.5,7.6-0.8,11.3-1.8c7.7-2.1,15.3-4.1,23.4-3.8c8.6,0.4,16.8-1.4,24.4-5.6c4-2.2,8.3-3.3,12.8-3.2
		c1.6,0,2.9-0.6,4-1.8c2.7-3,6.4-3.4,10-3.2c6.2,0.4,12.3-0.4,18.3-1.4c6.4-1,12.7-2.3,19.1-3.5c4.8-0.9,9.1-3.2,13.3-5.5
		c4.8-2.6,10.1-4.3,14.8-7.1c8.3-4.8,13.7-11.7,15.8-21.1c0.4-1.7,0.6-3.5,0.7-5.3c0.1-1.9,0.6-3.6,1.5-5.3c0.5-0.9,0.8-1.8,1-2.8
		c1.7-8.1-3.9-10.7-11-8.6c-4.7,1.4-8.9,3.9-13.3,5.9c-9.3,4.3-18.9,4.9-29,4c-9.7-0.9-19.2-3.1-29.1-2.8
		c-7.1,0.2-14.1-1.8-21.1-2.9c-7.2-1.1-12.2-4.9-16.5-10.2c-3.6-4.5-6.6-9.6-10.6-13.8c-3.7-4-7.8-7.5-12.3-10.5
		c-4.7-3.2-8.1-7.4-10.8-12.3c-1.1-2-2.1-4.1-3.6-5.7c-2.8-3.3-6.1-5.6-12-3.2c-5.8,2.3-11.4,2-17.1,0c-1.8-0.6-3.7-1-5.5-1.3
		c-3.7-0.4-7,0.9-9.5,3.5c-3.5,3.6-7.4,6.9-11.4,10c-3.6,2.9-5.3,6.5-5.8,11.1c-0.5,4.6-0.6,9.3-2.9,13.6c-1.2,2.2-3,3.7-4.6,5.5"/>
	<path fill="none" stroke="#808080" stroke-width="0.25" stroke-linecap="round" stroke-linejoin="round" stroke-miterlimit="10" d="
		M-0.2,304.3c1.9-0.9,4-0.8,6-1.3c3.1-0.7,6.1-1.7,9.1-3c4.2-1.8,8.7-1.4,13.1-2.3c8-1.8,16.2-1.8,24.1-3.7c4.5-1.1,9-1.9,13.3-3.8
		c4.8-2.1,10-2.5,15.1-3.3c11-1.6,21.8-3.4,32.2-7.8c4.8-2,10.1-2.6,15.3-3.3c7.1-1,14.1-1.8,21.1-3.4c5.9-1.4,12.1-2,18.1-3.1
		c10.6-1.9,21.4-3.2,31.2-8.5c8.8-4.8,16-11.1,20.6-20.1c1.4-2.7,2.1-5.7,2.3-8.8c0.6-6.8-5.3-9.8-11.1-8.1
		c-3.7,1.1-7.1,2.7-10.8,3.9c-7.7,2.4-15.3,4.6-23.4,3.9c-5.2-0.4-10.4-1-15.6-1.9c-5.2-0.9-10.6-1.7-15.8-1.5
		c-13.3,0.6-25.7-3.1-37.9-7.7c-5.6-2.1-9.5-6.5-13.6-10.7c-8.5-8.8-13.6-19.8-20.5-29.7c-0.9-1.2-1.7-2.5-2.8-3.5
		c-3.9-3.6-6.1-3.8-10-1.4c-5.3,3.3-10.1,3.6-15.7,0.8c-5.9-2.9-11.8-2.4-16.8,2.8c-4.1,4.3-8.8,8-13.5,11.7
		c-4.4,3.4-5,8.3-3.3,13.5c0.3,0.9,0.6,1.8,0.7,2.8c0.7,4.2-0.4,5.9-4.5,7.8c-2.2,1-4.5,1.6-6.8,2"/>
	<path fill="none" stroke="#808080" stroke-width="0.25" stroke-linecap="round" stroke-linejoin="round" stroke-miterlimit="10" d="
		M-0.2,299.2c8-1.6,15.9-3.4,24.1-2.8c2.9,0.2,5.6-1.4,8.3-2.5c2.2-0.9,4.4-1.6,6.8-1.4c6.4,0.5,12.3-1.7,18.4-3.2
		c5.9-1.4,11-5.1,17.1-5.8c6.4-0.7,12.7-1.8,19.1-2.4c7.7-0.6,15-2.6,22.3-4.8c4.9-1.5,10-1.5,14.8-2.8c9.4-2.5,19-4.4,28.4-6.6
		c7.4-1.7,15.1-2.6,22.6-4.1c9.6-1.9,17.6-6.5,24.6-13.1c1.9-1.8,4-3.4,5.7-5.3c2.3-2.6,3.6-5.9,2-9.2c-1.7-3.6-5-5.2-9-5.6
		c-4.6-0.4-8.5,1.5-12.3,3.6c-2.9,1.6-5.7,3.3-9.1,4c-3.6,0.8-7.2,0.6-10.8,0.2c-8.3-1-16.5-3-24.9-3.8c-11.5-1.1-23.1-2.2-34.4-4.9
		c-6.8-1.6-13.5-3.5-19.9-6.8c-7.8-4-12.4-10.3-14.8-18.6c-1.6-5.4-3.5-10.8-7-15.3c-2.1-2.7-4.6-4.7-8.3-4.6
		c-1.7,0.1-3.2,0.6-4.5,1.6c-2,1.4-4,3-6.3,4c-3,1.3-5.8,0.2-8.5-0.8c-3.7-1.3-7.5-2.5-11.3-1.1c-5,1.8-9.8,4.2-13.3,8.5
		c-2.1,2.6-2.4,5.7-1.8,9c0.5,2.5,1,5,1.1,7.5c0.2,5.6-4.6,9.3-9.1,10.1c-3.5,0.6-6.7-0.5-10.1-1"/>
	<path fill="none" stroke="#808080" stroke-width="0.25" stroke-linecap="round" stroke-linejoin="round" stroke-miterlimit="10" d="
		M400,72.4c-5.9-3.1-9.7-8.3-13.1-13.8c-1.5-2.4-3.1-4.6-4.8-6.8"/>
	<path fill="none" stroke="#808080" stroke-width="0.25" stroke-linecap="round" stroke-linejoin="round" stroke-miterlimit="10" d="
		M329.1,79.1c5,4.6,10.6,8.1,17.3,9.5c3.9,0.9,7.6-0.1,11.3-1c4-1,7.4-3,10.8-5.1c3.9-2.4,7.7-2.3,11.6,0c2.7,1.6,5.1,3.5,7.5,5.5
		c3.8,3.1,7.9,5.7,12.3,7.8"/>
	<path fill="none" stroke="#808080" stroke-width="0.25" stroke-linecap="round" stroke-linejoin="round" stroke-miterlimit="10" d="
		M220.9,140.7c6.4-0.9,9.1-5.7,11.6-10.8c3.2-6.5,4-13.5,4.3-20.6c0.2-3.5-0.1-7,0.2-10.6c0.5-5.2,3.2-9,7-12.3
		c4.6-3.9,9.9-6.6,14.9-10c2.5-1.7,4.7-3.6,6-6.3c2-4.1,1.1-8.2-0.8-12c-1.9-3.9-4-7.6-6.3-11.3c-4.1-6.7-4.9-13.7-3.6-21.4
		c0.7-4.1,1.9-8.2,0.7-12.6c-1.4-5-3.6-6.7-8.9-6.3c-3.9,0.3-7.9,0.3-11.8,0c-4.9-0.3-8.7-2.8-11.6-6.7c-1.7-2.2-3.5-4.3-6.3-5.3
		c-3.9-1.3-7.4-0.1-10.5,2c-2.9,2-5.8,4.1-8.5,6.3c-8.3,6.6-16.6,4.1-22.9-3c-3.1-3.4-5.2-7.5-8-11.1c-1.6-2-3.4-3.5-5.6-4.7
		c-4.4-2.4-9.6-0.2-11.6,4.7c-1.5,3.8-1,7.5-0.2,11.3c1.5,6.8,2.9,13.6,2.8,20.6c-0.2,6.8-0.2,13.6,0,20.3c0.1,3.6,0.9,7.1,4.2,9.3
		c2.4,1.5,5.2,1.8,8,1.5c3.7-0.3,7.3-0.6,10.8,0.8c4.7,1.9,7.8,5.3,9.5,10c2.4,6.7,4.4,13.5,7.1,20.1c2.6,6.1,2.4,12.4,2.1,18.6
		c-0.3,4.6,0.3,9.2,2.5,13c4.4,7.6,9.4,15,15.4,21.5c2.5,2.7,5.3,4.6,9.1,5"/>
	<path fill="none" stroke="#808080" stroke-width="0.25" stroke-linecap="round" stroke-linejoin="round" stroke-miterlimit="10" d="
		M381.9,51.5c-1.4-1.4-3-2.8-5-3.2c-3-0.6-5.1,1.1-6.5,5.2c-1.1,3.2-2,6.5-4,9.3c-3.3,4.7-8,6.7-13.6,7c-9.8,0.6-17.8-3.3-24.6-10.1
		c-5.5-5.4-10.6-11.2-15.4-17.3c-3.2-4-7.3-7-12.5-8.1c-6-1.3-11,2.7-10.3,9.6c0.6,6.7,3.5,12.5,6.3,18.3c2.3,4.8,4.7,9.6,6,14.8
		c2.7,10.9-0.7,19.7-9.3,26.6c-2.5,2-5.1,3.8-7.6,5.7c-4.1,3.1-6.6,11.8-2.9,17.9c1.7,2.8,4.3,4.3,7.5,4.8
		c8.4,1.4,16.6-0.1,24.6-2.3c7.5-2,14.9-4.4,22.9-4.3c6.3,0.1,12.3,0.9,17.9,4.3c5.8,3.5,8.5,8.8,10,15.1c1.7,7.2,0.8,14.2-2.3,20.8
		c-3.8,8.1-8.3,15.9-14,22.9c-5.4,6.6-11.7,12.1-18.4,17.3c-8.3,6.4-16.9,12.6-26.4,17.4c-8.2,4.1-16.7,7.4-25.9,8.9
		c-7.6,1.2-15.1,2.6-22.9,2.5c-6.1-0.1-8.1-1.5-6.8-10.3c0.8-1.8,0.1-3.6-0.5-5.3c-2.4-6.4-2.4-12.9-1.3-19.6c0.7-4,1.5-8,0.3-12.1
		c-0.3-1-0.5-2.1-1-3c-1.1-1.9-3.5-2.6-5.7-1.5c-3.2,1.6-6.4,3.4-9.6,5c-5.3,2.7-10.9,3.4-16.8,3.1c-7.3-0.4-14.5-1.7-21.3-4.2
		c-9.7-3.5-17.2-9.7-21.1-19.5c-1.9-4.7-1.9-9.8-1.8-14.8c0.2-7.7,2.4-15.1,3.6-22.6c1.8-11.6-7.9-18.3-17.1-17.9
		c-1.1,0.1-2,0.5-2.7,1c-5.7,4.4-9.6,9.7-10.4,17.3c-0.9,9-1.5,18.2-4.4,26.9c-2,6.1-3.5,12.3-5.4,18.4
		c-3.6,11.3-15.1,11.8-22.4,5.5c-2.4-2.1-4.5-4.6-6.3-7.2c-4.1-5.8-10.1-9.7-15.6-14.1c-5.6-4.4-9.8-9.9-13-16.1
		c-2.8-5.5-5.9-10.8-11.4-14c-3.4-2-7.1-3.6-11.3-3.1c-2.5,0.3-4,1.8-4.6,4.3c-0.4,1.8-0.1,3.7-0.9,5.6c-1.3,2.9-1.8,3.2-4.8,2.8
		c-1.4-0.2-2.7-0.8-4-1c-6.7-1.2-10.2,1.4-13.3,6c-0.8,1.2-1.6,2.5-2.3,3.8c-2.9,5.9-7.7,9.8-13.3,12.8c-4.1,2.2-7,5.4-8.1,10
		c-0.6,2.3-2,4.4-2.2,6.8"/>
	<path fill="none" stroke="#808080" stroke-width="0.25" stroke-linecap="round" stroke-linejoin="round" stroke-miterlimit="10" d="
		M400.3,215.8c-0.7-1.5-1.9-1.5-3.3-1c-4.2,1.5-7,4.6-9.8,7.8c-5,5.6-7.1,12.7-9.7,19.4c-2.7,6.8-6.8,12.7-13.2,16.2
		c-6.8,3.7-11.5,8.9-14.4,15.7c-1.8,4.3-4.3,8.1-7.3,11.5c-3.7,3.5-10.1,8.5-13.1,12.8c-2.3,3.4-3.5,6.9-2.3,11.1
		c0.4,1.3,0.1,2.9-1,3.7c-0.9,0.7-2.1,0.9-3.5,0.2c-1.5-0.8-2.2-1.7-2-3.4c0.1-0.7,0.3-1.4,0.4-2c0.2-1.5,0.7-3.4-1.1-4.5
		c-1.8-1.1-3.6-0.6-5,0.5c-2.8,2.4-4.5,5.7-6.8,8.5c-0.9,1.1-1.7,2.2-2.5,3.3c-2.3,2.8-5.4,2.9-8.5,2.5c-1.9-0.3-2.5-1.9-1.8-4.2
		c0.4-1.2,0.8-2.4,0.8-3.8c0-1.3-0.8-1.7-1.6-2.3c-0.9-0.7-1.9-0.2-2.5,0.3c-1.9,1.7-3.6,3.6-5.1,5.7c-2.6,3.6-6.2,5.1-10.5,5.3
		c-4.1,0.2-8-0.3-10.8-3.8c-1.4-1.7-2.1-3.7-2.2-5.8c-0.1-1.4,0-2.8,0-4.3c0-2.4,1.1-4.1,3-5.5c2.8-2.1,2.6-3.5-0.5-5.3
		c-0.7-0.4-1.5-0.6-2.3-1c-2-0.9-2.8-2.5-2.3-4.5c1.2-4.3,1.2-4.2-3-5.6c-3-1-6-1.3-9.1-0.5c-3.8,1-5.1,4.1-3.8,8.5
		c0.8,2.6,1.9,5.2,1.3,8c-0.7,3.2-1.8,3.7-4.3,1.8c-0.6-0.4-1.3-0.8-1.7-1.3c-1.4-1.5-2.8-1.6-4,0c-2,2.7-4.7,3.3-7.8,3
		c-2.3-0.2-4.3,0.8-6.5,1.1c-4.1,0.5-7.8-0.1-11.1-2.6c-4.8-3.6-9.1-2.2-13.3,1c-2.4,1.9-5,3.1-8,2.4c-1.8-0.4-3.5-1.5-5.3-1.9
		c-5.7-1.4-11.5-1.6-17.3-1.3c-3.4,0.2-6.7,0.7-10.1,0.7c-6.9,0-13.1,1.4-18.1,6.5c-3.1,3.2-7,3.9-11.3,2.3c-4.3-1.6-8.6-1-12.3,1.8
		c-3.8,2.9-7.8,5.4-12.1,7.4c-1.1,0.5-1.5,1.7-2.7,1.8"/>
	<path fill="none" stroke="#808080" stroke-width="0.25" stroke-linecap="round" stroke-linejoin="round" stroke-miterlimit="10" d="
		M400.3,185.7c-4.5,9.4-7.5,19.5-14.8,27.4c-1.8,1.9-3.8,3.5-6.1,4.4c-4.1,1.8-5.7,5-5.5,9.1c0.4,6-0.9,11.5-4.6,16.3
		c-2.7,3.7-6.7,5.3-10.8,6.8c-6.3,2.2-11.4,5.9-13.7,12.3c-1.4,3.7-2.3,7.7-4.1,11.3c-2.6,5.1-5.8,9.8-11.5,11.8
		c-1.4,0.5-2.9,0.5-4.2,0.8c-3.1,0.8-6.1,1.9-8.3,4.4c-0.3,0.3-0.7,0.5-1,0.8c-5.2,3.8-5.9,2.9-8.5-1.8c-2.2-3.8-4.7-4.8-8.5-2.7
		c-2.8,1.5-5.7,2.7-8.8,3.2c-2.6,0.5-4.3-1.5-3.5-4c0.9-3.1,3.6-4.8,6.1-6.5c4.5-3,4.8-10.4,0.9-14.4c-2.6-2.7-5.7-2.6-9-1.3
		c-5,1.9-10.1,3.7-15.3,5.2c-7.6,2.2-14.7,2-21.4-2.6c-3.6-2.4-7.6-4-11.8-5.1c-8-2.2-9.6,3-9.3,8.3c0.3,4.4,1.5,8.6,3,12.8
		c0.7,2.2,1.4,4.5,1.2,6.8c-0.3,3.7-1.4,4.4-5,3.5c-2.7-0.7-4.8-2.6-6.8-4.5c-2.7-2.6-5.3-5.4-8.8-7c-7.3-3.5-14.8-3.5-21.5,0.7
		c-4.9,3.1-9.6,4.6-15.2,3.1c-4.4-1.2-8.8-0.5-13,0.6c-5.1,1.4-10.2,1.5-15.4,1.4c-4-0.1-7.6,0.7-11,2.6c-2.1,1.2-4.2,1.4-6.6,1.3
		c-5-0.2-9.9,0.2-13.8,4c-2.3,2.2-5,3.7-8.1,4.5c-2.3,0.6-4.3,1.7-6,3.3c-2.2,2.1-4.7,2.6-7.3,1.4c-4.7-2.1-9.6-2.3-14.6-1.5
		c-6,0.9-12.1,0.6-18.1,1.7c-4.6,0.9-8.4,2.7-11.3,6.6c-2.4,3.2-4.4,4.5-8.8,2.3c-3.8-1.9-8-2-12.1-2.2c-3.8-0.2-7.5-0.8-11.3,0.2
		c-2,0.5-3.7,1.6-5.5,2.6c-1.6,0.9-3.2,1.1-5.1,0.8c-1.9-0.3-3.8,0.1-5.8,0.2"/>
	<path fill="none" stroke="#808080" stroke-width="0.25" stroke-linecap="round" stroke-linejoin="round" stroke-miterlimit="10" d="
		M66.3,47c5.6,4,11.7,3.9,18.1,2.3c4.2-1.1,7.9-3.4,11.8-5.3c5-2.4,7.3-6.4,7.3-11.8c0-1.8,0.5-3.7,1.5-5.3c1.9-3,4.4-3,7.5,0.3
		c1.7,1.8,3,4,4.8,5.7l2.3,2.5c1.9,1.6,4,2.7,6.5,2.7c5,0.1,8.2-2.4,10.6-6.7c2.5-4.4,3.5-9.3,3.8-14.1c0.4-5,0.4-10-0.2-15.1
		c-0.5-3.9-1.5-7.8-1.7-11.8"/>
	<path fill="none" stroke="#808080" stroke-width="0.25" stroke-linecap="round" stroke-linejoin="round" stroke-miterlimit="10" d="
		M66.1,46.7c-2.7-2.4-3.5-5.3-2.3-8.8c0.4-1.1,0.2-2.5,0-3.7c-0.2-2-1.9-3.1-4-2.5c-1.7,0.5-3.1,1.3-5.1,0.5c-2.4-1-3.3-2.1-3.5-4.6
		c-0.2-2.2,0.6-4.3,0.6-6.5c0-2-0.8-2.6-2.8-3.1c-2.5-0.6-5.1,0-7.6-0.8c-2.9-1-3.7-2.2-3-5.1c0.2-0.9,0.4-1.8,0.5-2.8
		c0.2-1.8-0.7-2.7-2.5-2.8c-2.8-0.2-5.6,0.3-8.3,0.8c-3.8,0.7-7.2,0-10.1-2.8c-1.3-1.3-2.7-2.4-4.3-3.2c-3.4-1.9-7.2-0.6-8.3,3.3
		C5,6.4,4.5,8.4,4,10.3c-0.7,2.6-2.9,4.3-4.3,6.5"/>
	<path fill="none" stroke="#808080" stroke-width="0.25" stroke-linecap="round" stroke-linejoin="round" stroke-miterlimit="10" d="
		M400.3,116.3c0.1-0.9-0.5-1.4-1-2c-8.6-9.4-19.2-15-31.4-18.1c-5.1-1.3-10.3-1.7-15.6-2c-5.5-0.3-11-0.5-16.3-2.2
		c-8.2-2.7-12.6-8.7-14.8-16.6c-0.9-3.1-1.3-6.2-3.5-8.8c-0.7-0.9-1.3-1.8-2.5-1.7c-1.4,0.1-1.9,1.4-2.3,2.5
		c-1.1,3.2-0.1,6.4,0.5,9.6c0.9,5.3,2.1,10.7,1.7,16.1c-0.2,2.6-0.3,5.2-0.9,7.8c-0.7,3.3,1.3,6.7,4.2,7.2c1.6,0.3,3.1-0.2,4.5-0.9
		c8-3.8,16.4-6.3,25.1-7c12.2-0.9,24,0.7,34.4,7.9c6.4,4.4,10.3,10.4,11.4,17.9c0.9,6,0.3,12.1-1.9,17.8
		c-4.1,10.6-9.4,20.5-17.5,28.7c-3.6,3.6-5.7,8.2-8.1,12.5c-4.8,8.6-10.2,16.9-17.6,23.6c-6.4,5.8-13.4,10.9-20.9,15.3
		c-9.1,5.4-18.3,10.5-28.6,13.4c-6.9,2-14,3.2-21.1,4c-6,0.7-11.9,0.4-17.8,0.4c-6.1-0.1-12.2-0.6-18.3-1c-1.5-0.1-2.9-0.7-4-1.5
		c-2.4-1.8-2.2-4.9,0.5-7.5c1.2-1.1,2.5-2,3.7-3c1.2-1.1,3.7-3.5,2.3-4.3c-6.5-2.9-8-8.4-7.5-14.8c0.3-4.3-2.3-6.2-6.6-5.1
		c-3.2,0.9-6,2.5-9.3,3.2c-5.5,1-11.1,1.2-16.6,0.8c-5.8-0.4-11.7-1.2-17.4-2.9c-11.2-3.2-19.6-9.7-24.3-20.4
		c-5.7-13-6.4-26.5-2.3-40.2c0.9-3,1.9-6.1,2.1-9.3c0.1-1.4,0-2.7-0.8-3.8c-1.3-1.8-4.2-2.2-6,1c-0.9,1.6-1.4,3.2-1.5,5
		c-0.3,4.3,0.6,8.5,0.5,12.8c-0.1,4.7-0.9,9.2-1.5,13.8c-1.8,14.6,0.6,28,11.8,38.7c6.3,6,14.2,8.4,22.6,9.6
		c10.1,1.3,20.1,0.5,30.2-0.7c3.1-0.4,6.3-0.4,9.3,1.2c3,1.5,4.3,4.1,5,7.1c0.8,3.2,0.8,6.3-0.4,9.6c-1.2,3.3-1.1,6.9,0.2,10.3
		c1.8,5.1,5.9,6.9,10.8,7.5c4.6,0.6,9.2,0.9,13.8,0.5c6.9-0.5,13.8,0.4,20.6,1.3c4.7,0.6,8.9-0.4,12.8-2.8c2.6-1.7,5.4-3,8.3-4
		c2.8-0.9,4.9,0.2,5.7,3c0.2,0.7,0.4,1.6,0.7,2.2c1.6,3.8,6.2,4.5,10.2,1.5c2.5-1.8,4.4-4.2,5.9-7c1.3-2.4,2.5-4.9,4.9-6.6
		c3.3-2.3,6.3-1.2,7,2.8c0.3,1.3,0.4,2.7,0.8,4c0.8,2.4,2.6,3.1,4.5,1.5c2.2-1.8,3.4-4.3,4.9-6.7c2.1-3.6,3.8-7.5,5.9-11.1
		c2.9-5.3,6.8-9.4,12.2-12.3c3.7-2,5.6-5,4.6-9.5c-0.4-1.9,0.1-3.9,1.7-5.3c1.6-1.5,3.3-2.9,5-4.3c4.6-3.5,7.1-8.1,7.2-13.8
		c0-2.9,1-5.3,2.6-7.5c1.4-2,2.5-4.1,3-6.6c0.7-3.3,2.8-5.9,5-8.3c4.6-4.8,7.9-10.3,9.7-16.6c0.5-1.7,0.6-3.5,0.5-5.3"/>
	<path fill="none" stroke="#808080" stroke-width="0.25" stroke-linecap="round" stroke-linejoin="round" stroke-miterlimit="10" d="
		M322.6,138.3c-0.3,0.2-0.8,0.3-1,0.4c-8.4,3.9-15.5,10.1-24.1,13.5c-5.5,2.2-11.4,3.6-17,5.6c-5.3,1.9-10.2,4.6-13.1,9.8
		c-1.6,2.9-2.3,6-2.5,9.3c-0.4,6.3,0.8,12.4,1.8,18.6c0.9,5.6-0.7,10.7-3.3,15.6c-1.7,3.2-3.5,6.4-4.7,9.8c-0.9,2.4,0.5,4.5,3,4.8
		c3.6,0.4,6.2-1.2,8-4c2.4-3.7,5-6.9,9.3-8.6c3.6-1.5,7.3-2.5,11.1-2.9c14.2-1.5,25.8-7.1,33.7-19.4c6-9.3,12.6-18.2,20-26.4
		c2.9-3.2,5.1-6.9,6.1-11.3c1.1-4.5,0.8-8.6-2.3-12.3c-4.2-4.4-9.8-4.9-15.3-4.7C331.5,136,323.6,137.9,322.6,138.3z"/>
	<path fill="none" stroke="#808080" stroke-width="0.25" stroke-linecap="round" stroke-linejoin="round" stroke-miterlimit="10" d="
		M330.4,135.2c-2.9,0.6-14.9,4.4-17.6,5.5c-7.4,3-14.6,6.3-22.4,8.3c-4.7,1.2-9.4,2.6-13.6,5.3c-4.3,2.8-8.5,5.7-11.8,9.8
		c-2.4,2.9-3.4,6.4-3.7,10.1c-0.5,5.8-0.6,11.6-0.8,17.3c-0.1,3.5,0.2,7,0.2,10.6c0,5.7-0.8,11.2-3.2,16.3c-0.2,0.4-0.3,0.8-0.5,1.3
		c-0.8,2.3-0.9,4.6,0.8,6.5c1.7,1.9,4.1,1.8,6.5,1.3c4.2-0.9,8.1-3,11.5-5.4c5.7-4,11.9-6.5,18.4-8.4c7.4-2.2,14.5-5.1,20.6-10
		c5.1-4.1,9.4-9.1,13.8-13.8c3.1-3.3,6.4-6.5,9.5-9.8c4.1-4.4,8.2-8.7,11.1-14c2.6-4.8,4.4-9.9,5-15.3c0.6-5.8-3.6-11.9-9.8-14.3
		C339.9,134.4,335.2,134,330.4,135.2z"/>
	<path fill="none" stroke="#808080" stroke-width="0.25" stroke-linecap="round" stroke-linejoin="round" stroke-miterlimit="10" d="
		M142,257.8c0.9-1,1.9-2,2.5-3.3c2.2-4.5,0.9-8.6-3.8-12.1c-5-3.8-10.8-5.4-16.8-6.3c-7.5-1.1-14.9-3-21.9-6c-4-1.7-8.2-3.1-12-5.1
		c-6.4-3.3-10.4-9-13.6-15.3c-2-3.8-3.7-7.9-7.1-10.8c-3.5-3-5.5-3-7.5,1.7c-0.5,1.1-0.6,2.4-1,3.5c-1.9,6.4-5.5,5.3-9.3,3
		c-0.8-0.5-3.8-3.3-4.5-4c-3.9-4-8.6-6.1-14.1-6.2c-4.7-0.1-7.4,4.2-6,8.7c0.7,2.2,1.7,4.2,2.7,6.3c1,2,0.4,3.9-0.8,5.2
		c-4.7,5.1-10.5,8.2-17.5,7.7c-3.8-0.2-7.7-1.1-11.6-0.9"/>
	<path fill="none" stroke="#808080" stroke-width="0.25" stroke-linecap="round" stroke-linejoin="round" stroke-miterlimit="10" d="
		M173.6,216.1c0.4,0.5,0.8,1.1,1.3,1.5c2.2,1.9,1.2,4.6-2,5.1c-4.6,0.7-9.2,0.5-13.8,0c-9-1-17.8-2.8-26.9-3.2
		c-6.4-0.3-14.4-4-19.4-8.7c-3.9-3.5-6.2-8.2-9.3-12.3c-3.8-5.2-8-9.9-13.6-13c-7.8-4.3-12.7-10.9-16.8-18.4
		C70,161.5,66.7,156,63,150.8c-1.2-1.7-2.5-3.2-5-3.6c-2.5-0.4-4.2,0.5-4.3,3.1c-0.1,2.9,0,5.9,0,8.8c0,3.7-2,5.2-5.3,3.7
		c-2.4-1.1-4.6-2.6-7.1-3.4c-6.1-2.2-11.6-0.5-16,3.8c-4,3.8-8.2,7.3-13.1,9.8C6.1,176,3,181.4,2,188.2c-0.4,2.9-2,5.6-2.3,8.5"/>
	<path fill="none" stroke="#808080" stroke-width="0.25" stroke-linecap="round" stroke-linejoin="round" stroke-miterlimit="10" d="
		M400.3,157c-2.1,2.9-5.3,4.6-7.8,7c-3.1,2.5-3.7,6.2-4.2,9.8c-0.3,2.2-1.2,4.2-2.4,5.7c-3.1,4-4,8.2-2.8,13.2
		c1.5,6-1,10.6-5.7,14.3c-3.1,2.4-6.7,4-9.8,6.5c-2.7,2.1-3.2,3.8-1.7,6.8c0.8,1.6,1.7,3.3,2.2,5c0.8,3-1,5.8-4.7,7.7
		c-1.3,0.7-2.8,1.1-4.2,1.6c-6,1.9-9.8,6.3-12.6,11.7c-3.9,7.4-6.4,15.2-9.5,22.9c-0.7,1.7-1,3.7-2.5,5c-0.7,0.6-1.2,1.6-2.3,1.2
		c-1.2-0.4-2.2-1.2-2.3-2.7c-0.3-3.6,0.4-7.1,1.3-10.6c0.9-3.7,2-7.4,1.8-11.3c-0.1-3.4-0.8-4.4-3.8-5.3c-2.2-0.6-3.7,0.3-5.3,3
		c-1.6,2.7-2.2,5.8-3,8.8c-1.1,4-2.7,7.7-6.1,10.2c-1.9,1.4-3.9,3.1-6.7,2.1c-3.1-1.1-3.8-3.8-4.2-6.6c-0.7-4.5-0.6-9,1.4-13.3
		c0.4-0.8,0.3-2.1,0-3c-0.9-2.3-3.3-2.8-5.2-1c-1.9,1.8-3.6,3.8-5.3,5.8c-3.3,3.8-7.8,3.9-12.1,3.4c-3.9-0.4-7.7-1.4-11.6-2
		c-5.5-0.8-10.9,0.5-16.3,0.3c-5.4-0.2-10.9,0.2-16.1-1.7c-1.6-0.6-2.9-1.6-4.2-2.6c-3.2-2.4-7.3-1.9-9.3,0.8c-1.5,2-5,6.1-6.5,8
		c-4.5,4.8-10.3,7.3-16.4,9.2c-5.1,1.6-9.5,4.5-14.3,6.7c-4.7,2.1-9.6,3.4-14.6,4.5c-6.1,1.3-12.2,2.6-18.3,3.8
		c-3.3,0.6-6.5,1.5-9.8,1.7c-4.9,0.3-9.4,2.1-14,3.2c-2.4,0.5-4.9,0.9-7.3,0.8c-5.9-0.1-10.9,2-16.1,4.3c-4.4,2-8.6,4.5-13.3,5.9
		c-1.6,0.5-3.2,0.4-4.8,0.4c-5.8,0.1-11.6,0-17.3,0.9c-6.5,1-13,1.9-19.6,2.1c-4.6,0.2-9.2,1-13,3.6c-2.3,1.5-4.6,2.3-7.1,1.9
		c-6.3-1.2-12.2,0.2-18.1,2.1c-3.3,1-6.5,1.3-9.8,0.5c-1.6-0.4-3.3-0.1-5-0.1"/>
	<path fill="none" stroke="#808080" stroke-width="0.25" stroke-linecap="round" stroke-linejoin="round" stroke-miterlimit="10" d="
		M-0.2,8.8C1.6,5.3,2,1.6,1.8-2.3C1.7-3.5,1.7-4.8,2-6c1-4.2,3.1-5.6,7-4c1.7,0.7,3.2,1.8,4.3,3.5c1.1,1.7,2.4,3.3,3.8,4.8
		c5,5.6,12.7,7.3,19.6,2.5c1.3-0.9,2.6-1.9,4-2.7c1.3-0.8,2.8-1.2,4.2-0.2c1.6,1.2,2.2,2.7,1.6,4.8C46.1,3.7,46.1,5,46,6.3
		c-0.2,2.6,1,3.7,3.5,3.5c1.3-0.1,2.6-0.4,3.8-1c1.6-0.7,3.3-1.5,5-2c1.8-0.5,3.6-0.6,5,1c1.4,1.6,1.1,3.5,0.5,5.3
		c-0.5,1.6-1.5,3-2.2,4.5c-0.3,0.6-0.7,1.2-0.7,1.8c-0.4,3.8,0.8,6.2,5.2,5c4.6-1.3,6.1,0,7.3,4.8c0.1,0.6,0,1.2,0,1.8
		c0.5,6.3,1.8,8.9,7,10c1.7,0.4,3.5,0.5,5.3,0.3c9.5-1,16.3-10.1,14.4-19.4c-0.4-1.8-0.9-3.5-1.3-5.3c-0.4-1.9-0.6-3.8,0.2-5.8
		c1.6-3.7,4-4.4,6.8-1.5c3,3.2,5.1,7.1,7.8,10.5c2.7,3.4,6.1,5.7,10.6,4.9c4.2-0.7,6.2-4.1,7.3-7.9c1.1-3.8,1.4-7.7,1.7-11.6
		c0.6-8.6,0.4-6.5,2.5-14.8"/>
	<path fill="none" stroke="#808080" stroke-width="0.25" stroke-linecap="round" stroke-linejoin="round" stroke-miterlimit="10" d="
		M-0.2,289.7c8.3-1.4,16.2-4.1,24.4-6c7.7-1.9,15.5-3.2,23.4-4.3c10.2-1.3,20.4-2.8,30.4-5.2c5.9-1.4,11.9-2.2,17.6-4.3
		c5.2-2,10.3-4.5,14.5-8.1c3.9-3.3,5-7.9-2.2-11.5c-3.4-1.7-7.1-2.6-10.6-4c-5-1.9-9.1-5.3-13.8-7.9c-6.7-3.6-13.8-4.4-21.1-3.9
		c-8.7,0.6-17.4,1.2-26.1,0.2c-6.3-0.7-12.7-0.1-18.8,1.7c-5.3,1.5-10.6,2.8-16.1,3.4c-0.3,0-1.4-0.5-1.5,0.7"/>
	<path fill="none" stroke="#808080" stroke-width="0.25" stroke-linecap="round" stroke-linejoin="round" stroke-miterlimit="10" d="
		M213.1,74.9c-0.6-0.9-0.7-1.3-1-2c-1.6-3-4.6-4.3-7.5-5.5c-3.7-1.6-5.8-4.5-7-8.1c-1.4-4.1-2.6-8.2-4.1-12.3
		c-1.1-2.9-2.6-5.7-5.2-7.7l-2.3-2.2c-1.1-1.4-1.5-1.8-2.2-2.6c-2.3-2.8-1.5-5.6,1-7.2c1.2-0.8,2.6-1.6,4-2c8.1-2.2,16-4.6,24.6-3.9
		c6.5,0.6,13.1,0.5,19.6,1.3c7.1,0.9,10.7,5.4,9.2,12.1c-0.7,3.1-0.5,6,0.5,9.1c1.2,3.6,2.9,7.1,3.4,11c0.6,5.1-0.1,9.5-4.8,12.6
		c-3,2-6.2,2.9-9.6,3.4c-3.2,0.5-5.8,1.8-8,4.1C218.6,80.1,216.4,78.8,213.1,74.9"/>
	<path fill="none" stroke="#808080" stroke-width="0.25" stroke-linecap="round" stroke-linejoin="round" stroke-miterlimit="10" d="
		M211.3,74.5c-1.1-2.1-2.8-2.2-5-2.7c-6.9-1.3-10.2-5.9-11.9-12.3c-1.7-6.4-3-13-6.7-18.6l-3.3-3.5c-1.2-1.1-1.9-1-3-1.3
		c-3.3-0.9-6.6-0.4-9.8-0.4c-3.7,0-6.4-1.7-7.7-4.9c-2.6-6.3-0.6-11.1,7.2-11c2.8,0,5.4,0.8,7.8,2.2c2.7,1.5,5.6,1.8,8.5,0.5
		c1.2-0.6,2.3-1.3,3.5-2c4.9-2.7,10.4-3.1,15.8-3.2c6.8-0.2,13.6-0.2,20.4-0.3c3.5,0,7.1-0.3,10.6,0.5c3.7,0.8,7.4,1.7,9.3,5.5
		c1.5,3,0.8,6.1,0,9c-1.3,4.7-1.1,9.1,1,13.6c1.4,2.9,2.5,6,3.5,9c2.5,7.6,0.8,13.2-6.7,16.2c-4,1.6-8,2.2-12.1,2.4
		c-4.5,0.3-7,1.9-8.5,6.1c-0.4,1.2-0.8,2.3-1.6,3.2c-1.2,1.5-2.1,3.4-4.5,3c-2.3-0.3-3.3-1.9-4.1-4c-0.7-1.8-1.3-3.6-1.9-5.6
		C212,75.7,211.4,74.9,211.3,74.5z"/>
	<path fill="none" stroke="#808080" stroke-width="0.25" stroke-linecap="round" stroke-linejoin="round" stroke-miterlimit="10" d="
		M-0.2,285.9c4.7-0.5,9.3-2,13.8-3.3c7.8-2.3,15.6-4,23.6-5.3c11.4-1.9,23-2.8,34.2-6c6.9-2,13-5.6,19.1-9.3c0.4-0.2,0.7-0.5,1-0.8
		c3.2-2.9,4-5.5-0.5-8.7c-9.4-6.7-20-11.1-31.4-13.3c-13.7-2.7-27.4-1.5-40.9,1.2c-6.3,1.3-12.5,2.6-18.8,3.5"/>
	<path fill="none" stroke="#808080" stroke-width="0.25" stroke-linecap="round" stroke-linejoin="round" stroke-miterlimit="10" d="
		M-0.2,131.4c2-3.6,5.8-4.5,9.1-6.2c1.9-1,3.8-2,5.5-3.3c3.6-2.8,5.2-6.9,5-11.3c-0.6-9.5,4.1-16.4,10.1-22.9
		c1.8-1.9,4.1-3.1,6.3-4.2c9.8-4.7,14.5-12.5,15.1-23.2c0.4-7.1-0.3-14-2.5-20.9c-2.5-7.9-7.3-14-13.4-19.3c-4-3.5-8.3-6.7-13.1-9
		C14.1,7.4,7.9,10.3,5,17.6c-1,2.4-1.7,4.9-2,7.5c-0.3,3-1.9,5.6-3.2,8.3"/>
	<path fill="none" stroke="#808080" stroke-width="0.25" stroke-linecap="round" stroke-linejoin="round" stroke-miterlimit="10" d="
		M0,282.4c10.6-2.6,20.9-6.2,31.7-8c8-1.3,16.1-2.3,24.1-3.6c5.7-0.9,11.2-2.5,16.1-5.7c2.2-1.5,4.8-2.2,7-3.8
		c3.2-2.3,3.5-4.1,0.7-6.8c-4.6-4.4-10.4-6.9-16.1-9.5c-8.4-3.9-17.4-3.7-26.4-2.5c-9.6,1.3-18.9,4.2-28.4,6c-3,0.6-6,1.2-9,1.3"/>
	<path fill="none" stroke="#808080" stroke-width="0.25" stroke-linecap="round" stroke-linejoin="round" stroke-miterlimit="10" d="
		M400.3,229.4c0.2-2.3-1.2-4-2.3-5.7c-0.9-1.4-3.7-1.5-5.2-0.3c-2.5,2-4.3,4.5-5.8,7.3c-3.2,5.9-6.2,12-8.6,18.3
		c-1.7,4.5-1.6,9-1.2,13.6c0.3,3.8,0.6,7.5,0.8,11.3c0.3,5-2.3,8.9-8.8,9.6c-4,0.5-8.1,0.3-12.1,0.9c-5.1,0.7-9.8,2-13.8,5.4
		c-3.3,2.8-6.8,5.4-9.5,8.8c-2.7,3.4-4.2,7-2.8,11.6c1.3,4.3-0.6,7.3-6.2,8c-2.7,0.3-5-0.3-6.8-2.7c-1.4-1.9-3.5-2.2-5.4-0.8
		c-2.5,1.8-4.7,3.8-7,5.8c-0.9,0.8-1.8,1.7-3,2"/>
	<path fill="none" stroke="#808080" stroke-width="0.25" stroke-linecap="round" stroke-linejoin="round" stroke-miterlimit="10" d="
		M-0.2,124.4c1.2-2.5,3.6-3.6,5.5-5.2c4.7-3.9,8.5-8.4,9.2-14.6c0.5-4.5,1.8-8.6,3.1-12.8c0.5-1.6,2-4,4.3-6
		c2.9-2.6,6.5-3.6,10.1-4.8c8.7-3,13.8-8.9,15.4-18.1C49,52.1,47.8,42,41.6,33c-5.2-7.6-12.1-13.3-20.8-16.6
		c-5.4-2.1-9.5-0.4-12.3,4.7c-1.8,3.3-3.3,6.7-5.1,10c-1,1.9-2.5,3.5-3.7,5.3"/>
	<path fill="none" stroke="#808080" stroke-width="0.25" stroke-linecap="round" stroke-linejoin="round" stroke-miterlimit="10" d="
		M400.3,85.7c0-1-1.1-1-1.5-1.2c-6.3-2.5-11.1-6.8-14.6-12.6c-1-1.8-2.2-3.4-3.8-4.8c-3.2-2.7-6.1-2.4-8.8,0c-1.4,1.2-2.6,2.6-3.8,4
		c-3.9,4.6-8.6,7.9-14.6,9.3c-7,1.6-13-0.5-18.1-5.3c-3.1-2.9-5.4-6.5-8.1-9.7c-4.9-5.9-9.8-11.8-16-16.4c-1.4-1-2.8-2-4.5-2.2
		c-3.6-0.5-5.7,2-6.1,6.2c-0.4,5.5,1.9,10.2,4,15.1c2.8,6.6,3.6,13.5,3,20.6c-0.6,6.2-3.7,11.5-7.2,16.6c-1.8,2.6-3.1,5.3-3.3,8.5
		c-0.3,4,2.9,6.6,5.8,7.3c4.9,1.1,9.9,0.9,14.8,0.3c8.3-1,16.7-2.2,25.1-1.2c7.1,0.8,14,2.7,20.3,6.2c7,3.9,10,10.3,10.3,18.1
		c0.3,9.2-2.3,17.7-7.5,25.4c-3.9,5.9-7.1,12.3-11.2,18c-9.1,12.8-21.1,22.5-34.4,30.7c-4.3,2.7-8.8,5.1-13.3,7.5
		c-9.3,5-19.3,7.4-29.6,9.1c-7.6,1.2-15.2,1.2-22.9,1.2c-2.3,0-4.7,0.5-7,0c-2.5-0.5-3.7-2.2-2.7-4.5c0.6-1.3,3.1-6,3-7.6
		c0.1-0.9-0.1-1.7-0.7-2.5c-3.8-5-4.2-10.8-3.6-16.8c0.3-2.7,0.8-5.5,0.6-8.3c-0.3-4.1-3.1-6.8-6.5-6.3c-1,0.2-2.1,0.6-3,1
		c-6.5,2.9-13.3,4.4-20.4,4.5c-9.9,0-19.7-2-28.8-5.6c-6.3-2.5-11.8-7-14.9-13.4c-3.9-8-3.4-16.8-3.5-25.4c-0.1-3.4,1.9-11.4,2-14.6
		c0.2-2.5,1.1-4.8,1.3-7.3c0.7-8.2-7.3-11.6-13.3-9.8c-6.1,1.8-8.6,6.7-10.5,12.1c-1.4,4-1.7,8.2-2,12.3c-0.6,7.4-0.7,14.9-1.6,22.3
		c-1.1,9.2-2.2,18.4-4.5,27.4c-1.3,5.1-3.2,10-9.2,11.6c-3.7,1-7,0.2-10-1.6c-4-2.5-6.6-6.2-8.9-10.2c-3-5.2-5.2-10.9-10-14.8
		c-2.6-2.2-5.3-4.3-8-6.3c-5.4-3.9-9.4-8.7-12.1-14.8c-2.4-5.4-4.8-11-10-14.6c-4.1-2.8-8.4-5.5-13.6-6c-3.9-0.4-5.3,0.6-5.5,4.5
		c-0.1,1.8,0.1,3.5,0,5.3c-0.2,4.1-2.2,5.2-6,3.8c-2-0.7-3.9-1.5-6-2.1c-5.2-1.3-9.3,0.7-12.5,4.4c-3.6,4.2-6.7,8.8-11.6,11.8
		c-1.1,0.7-2.1,1.4-3.3,2c-5.7,2.9-8.4,8-9.7,13.8c-0.5,2.1-1.7,3.9-1.8,6"/>
	<path fill="none" stroke="#808080" stroke-width="0.25" stroke-linecap="round" stroke-linejoin="round" stroke-miterlimit="10" d="
		M0,117.1c2.5-3,5.5-5.7,6.6-9.8c0.7-2.6,0.9-5,0-7.6c-1.1-3.3-1.3-6.7-0.5-10c1-4.2,4.2-6.7,8.2-8.1c3.6-1.2,7.4-1.8,11.1-2.8
		c5-1.2,9.7-3,13.6-6.7c5.7-5.5,6.6-12.4,6.2-19.6c-0.3-4.8-1.4-9.6-3.9-13.8c-4.8-8-11.3-13.9-20.4-16.6c-4.2-1.2-7.5,0.2-10.3,4
		c-0.9,1.3-1.8,2.6-2.5,4C6,34.6,3.2,38.5-0.2,42"/>
	<path fill="none" stroke="#808080" stroke-width="0.25" stroke-linecap="round" stroke-linejoin="round" stroke-miterlimit="10" d="
		M400.3,255.5c-0.6-2.8-1.8-5.5-1.9-8.5c-0.1-2.6,0.4-5.2,0.2-7.8c-0.2-1.9-0.4-3.7-1.5-5.3c-1.8-2.5-3.8-2.5-5.5,0
		c-0.6,0.8-1.3,1.6-1.5,2.5c-0.7,3.6-2.9,6.4-4.8,9.3c-2.3,3.3-3.1,6.8-3.3,10.8c-0.4,7.7,0,15.5-1.4,23.1c-0.7,4-2.5,5.8-7.4,6.8
		c-5.7,1.1-11.3,2.3-16.6,4.8c-6.3,3.1-10.4,8.4-13.8,14.3c-1.7,2.9-3,6-4.1,9.3c-1.5,4.4-5.6,7.8-11.2,7.6"/>
	<path fill="none" stroke="#808080" stroke-width="0.25" stroke-linecap="round" stroke-linejoin="round" stroke-miterlimit="10" d="
		M-0.2,293.7c2.7-1.4,5.7-1.4,8.6-2.2c7.5-2.1,15-3.9,22.6-5.6c8.2-1.9,16.5-3,24.9-4c2-0.2,4-0.4,6-0.8c0.9-0.2,11-2,11.8-1.7
		c5.3-1.2,10.6-2.3,15.8-3.5c12.6-3,24.9-7,36.2-13.5c1.4-0.8,2.7-1.8,3.8-3c2.9-3.2,2.7-6.6-0.7-9.3c-4.1-3.3-9.1-4.1-14.1-5.3
		c-5-1.2-10.1-2.1-15.1-3.4c-6.3-1.6-10.5-5.8-14.5-10.4c-2.6-3-5-6.2-8.6-8.3c-1.8-1-3.8-1.2-5.8-1c-2,0.2-3.1,2.1-2.7,5
		c0.3,2.2-1.1,2.6-2.3,2.4c-6-0.8-11.5-2.4-14.9-8.2c-1.5-2.6-3.5-5-6.2-6.6c-1.6-0.9-3.3-1.6-5-0.5c-1.7,1-2,3-1,5.2
		c2.3,5.1,0.9,6.2-1.3,7.7c-2.2,1.5-4.8,2.3-7.5,2.8c-4.3,0.8-8.6,0.6-12.8,0.4c-5.8-0.2-11.4,0.7-17.1,1.6"/>
	<path fill="none" stroke="#808080" stroke-width="0.25" stroke-linecap="round" stroke-linejoin="round" stroke-miterlimit="10" d="
		M400.3,44c-5.1-9.2-9.6-18.8-16.8-26.7c-5.8-6.4-13-9.5-21.4-8.6c-8.1,0.8-11.4,4.1-13.7,13.2c-0.9,3.6-0.8,7.4-1.4,11
		c-1.5,10.7-10,12-16.8,10c-4.7-1.4-8.1-4.7-11.1-8.5c-2.6-3.3-4.8-7-7.7-10.1c-5-5.4-11.2-8-18.4-8.5c-4.8-0.3-9.6-0.1-14.3,1.2
		c-7.5,2.1-12.2,10.1-11.5,18.2c0.5,5.5,3.7,9.8,6.8,14.1c3.6,5.1,7.7,9.9,10.8,15.3c4.9,8.4,3,20-4.2,26.5c-4.5,4-10,5.9-15.4,8.2
		c-2.3,1-4.6,2-6.8,3.3c-5.4,3.1-6.9,8.2-6.3,14c0.5,4.8,1.4,9.5,1.4,14.3c0.1,10-2.8,18.9-10,26.1c-4.8,4.8-9.9,9.2-15.8,12.5
		c-5.6,3.2-11.4,4.1-17.9,2.4c-6.7-1.8-13-4.1-18.6-8.2c-6-4.4-8.8-10.5-9.3-17.8c-0.3-4-0.4-8,0-12.1c0.1-1.2,0.9-9.7,1.1-10.9
		c0.8-6.7-1-13.8-2.4-20.3c-1.5-6.8-5.1-12.1-9.2-17.3c-3-3.9-7.1-5.2-11.8-4.2c-4.3,0.9-8.1,0.1-11.8-2c-4.5-2.5-7.4-1.5-10,3.2
		c-0.3,0.5-0.4,1-0.5,1.5c-1.7,5.5-4.8,10-9,13.8c-3.9,3.5-5.4,8.2-6.5,13.1c-1.3,5.3-4,9.5-8.3,12.8c-2,1.5-3.9,3.1-5.6,5
		c-3.3,3.9-7.7,3.9-12.3,2.8c-9.6-2.4-16.2-8.6-21.1-16.8c-2.3-3.9-4.4-7.8-7-11.6c-4.5-6.7-13.6-10.1-21.4-7.3
		c-2.7,1-4.4,3.1-6.2,5.1c-1.4,1.6-3,3-4.8,3.7c-4.9,1.7-7,5.6-8.3,10.1c-1.1,4-1.9,8.1-2.9,12.1c-1.7,6.8-6,10.4-12.4,12.1
		c-6,1.6-10.2,5-11.6,11.3"/>
	<path fill="none" stroke="#808080" stroke-width="0.25" stroke-linecap="round" stroke-linejoin="round" stroke-miterlimit="10" d="
		M-0.9,278.7c1.8,0.8,10.6-2.9,12.2-3.4c10.7-3.6,21.8-5.4,32.9-7c5.1-0.7,10.2-1.7,14.6-4.9c1.3-0.9,2.6-1.9,3.4-3.1
		c1.8-2.6,1.9-5.7-0.2-8c-3.3-3.7-7.9-4.7-12.5-5.5c-11-1.9-21.3,0.8-31.4,4.8c-5.9,2.3-12,3.8-18.3,3.5"/>
	<path fill="none" stroke="#808080" stroke-width="0.25" stroke-linecap="round" stroke-linejoin="round" stroke-miterlimit="10" d="
		M173.4,215.8c-1.6-1.2-3-2.6-4.8-3.5c-3.2-1.8-6.4-3.6-9.6-5.5c-4.9-3-9.2-6.8-10.8-12.6c-1.5-5.5-1.1-11.2-0.5-16.8
		c0.9-7.9,0.5-15.7,0.2-23.6c-0.3-7.2-0.3-14.4,1.8-21.3c1.6-5.3,5-8.6,10.2-8.3c4.5,0.3,6.4,2.1,7.9,6.3c0.8,2.3-0.7,7.8-1.1,10.8
		c-1.3,3.3-1.8,6.9-2.4,10.3c-0.9,4.7-1.5,9.5-1,14.3c0.5,6.4,1.4,12.8,4.8,18.3c4,6.4,10.3,10.2,17.3,12.3
		c7.1,2.1,14.4,3.8,21.8,4.5c9.1,0.9,18.2,0.6,26.9-2.9c3.1-1.2,5.8,0.5,6,3.7c0.2,2.8,0,5.7,0,8.5c0,4.2,0.8,8.3,3.8,11.3
		c5.4,4.1-0.4,8-2.5,11.1c-1.3,1.9-0.7,3.3,1.2,4.5c1.7,1.1,3.5,1.5,5.5,1.5c8.9,0.1,17.8,0.2,26.6-0.6c10.4-0.9,20.5-2.8,30.2-6.9
		c13.5-5.8,25.7-13.4,36.9-22.9c9.7-8.1,17.1-18,22.9-29.2c2.4-4.6,6-8.3,8.8-12.6c4.4-6.7,7.1-14.1,8.3-22.1
		c0.8-5.4,1.1-10.6-1-15.8c-1.5-3.8-4-6.7-7.1-9c-6-4.3-12.9-6.6-20.1-8.1c-3.8-0.8-7.5-1.2-11.3-1.4c-4-0.2-8.1,0.6-12.1,1.2
		c-3.8,0.6-7.5,1.2-11.3,1.5c-3.4,0.3-5.8-1.7-7.1-5c-1.6-4.1-1.7-8.4-0.9-12.6c1.9-9.4,0.5-18.4-2.3-27.4c-0.9-2.9-1.7-5.9-1.5-9
		c0-1.3,0.3-2.5,0.8-3.5c1.5-2.7,4.7-2.8,7.2-0.3c1.8,1.8,3,4.2,4,6.5c2.1,4.8,3.8,9.8,7,14.1c0.8,1.1,2,1.9,2.6,3.2"/>
	<path fill="none" stroke="#808080" stroke-width="0.25" stroke-linecap="round" stroke-linejoin="round" stroke-miterlimit="10" d="
		M400,260.3c-1.3-1.4-2.8-2.8-4-4.3c-1.2-1.5-2.5-3.1-4.5-2.9c-2.3,0.2-2.7,2.4-3.3,4.2c-1.5,4.8-3.8,9.3-4.6,14.3
		c-1,6.1,2.1,11.3,8.1,13.1c1.4,0.4,2.9,0.5,4.3,1.2c2.4,1.2,3.6,2.6,3,4.3c-0.6,1.7-3.3,3.2-5.3,2.8c-4.5-1.1-9-2.5-13.6-3.2
		c-7.9-1.1-11.4-0.5-15,6.7c-2.4,4.9-6.2,8.1-10.6,10.7c-5.9,3.5-10.8,7.8-12.8,14.6c-0.1,0.2-0.5,0.3-0.7,0.5"/>
	<path fill="none" stroke="#808080" stroke-width="0.25" stroke-linecap="round" stroke-linejoin="round" stroke-miterlimit="10" d="
		M-0.2,87.2c0.4-2.9,2.7-4.3,4.8-5.8c4.5-3.2,9.9-4,15.1-5.3c5.9-1.4,11.7-2.5,16.6-6.5c3.9-3.2,5.6-7.4,6-12.1
		c1-14.4-5.9-23.5-17.3-28.8c-4.1-1.9-8.3-1.6-11.8,1.7c-0.8,0.8-1.5,1.7-2.3,2.5C7,37.3,4.2,42.6-0.2,46.5"/>
	<path fill="none" stroke="#808080" stroke-width="0.25" stroke-linecap="round" stroke-linejoin="round" stroke-miterlimit="10" d="
		M-0.9,276.7c7.9-2.7,20.2-9.7,28.8-10.5c5-0.4,9.9-1.2,14.8-2c3.9-0.7,7.9-1.6,10.8-4.7c1.8-2,1.8-4-0.3-5.8
		c-2.6-2.3-5.9-3.1-9.3-3.5c-9.2-1.3-17.1,2.5-24.6,7.1c-4.6,2.8-9.5,4.3-14.9,4.5c-1.6,0.1-3.1,0.8-4.8,0.5"/>
	<path fill="none" stroke="#808080" stroke-width="0.25" stroke-linecap="round" stroke-linejoin="round" stroke-miterlimit="10" d="
		M-0.2,76.1c4.9-3.3,10.4-4.8,16.1-5.8c4-0.7,8.1-0.2,12.1-0.7c6-0.8,9.1-4.8,10.3-10.3c2.6-11.7-3.6-23.4-16.3-27
		c-4.2-1.2-7.9,1.3-10.8,4.6c-1.4,1.6-2.5,3.4-3.5,5.3C5.2,46.3,2.9,50.5-0.2,54"/>
	<path fill="none" stroke="#808080" stroke-width="0.25" stroke-linecap="round" stroke-linejoin="round" stroke-miterlimit="10" d="
		M-0.2,295.5c1.9-0.1,3.9,0,5.8-0.3c3.4-0.5,6.9,0.1,10.3-1.1c8.5-3,17.4-5,26.4-6.1c7.7-0.9,24.4-3.5,31.4-6.8
		c2.8-0.8,5-1.4,7.5-1.4c2.8,0,5.5-1.1,8.3-1.4c5.5-0.6,10.9-1.6,16.3-2.5c5.1-0.8,10.2-1.9,15.1-3.6c5.7-2,10.5-5.5,15.1-9.3
		c2-1.6,3.9-3.3,5.8-5"/>
	<path fill="none" stroke="#808080" stroke-width="0.25" stroke-linecap="round" stroke-linejoin="round" stroke-miterlimit="10" d="
		M400.3,295c-1.9-0.2-3.6,0.7-5.3,1.5c-3.4,1.7-6.4,1.5-9.3-1c-2.3-2-5-2.9-8-3.1c-6-0.3-9.8,2.7-12,7.8c-1.5,3.6-3.9,6.2-7.1,8.3
		c-4.8,3.2-8.4,7.3-9.3,13.3c0,0.2-0.5,0.3-0.7,0.5"/>
	<path fill="none" stroke="#808080" stroke-width="0.25" stroke-linecap="round" stroke-linejoin="round" stroke-miterlimit="10" d="
		M400.3,299.7c-2.7-1.8-5.5-1.1-8.3-0.5c-2.2,0.5-4.1,2.1-6.6,0.8c-0.4-0.2-0.9-0.4-1.2-0.6c-6-4.3-12.9-1.6-15.3,4.1
		c-1.4,3.3-3.7,5.5-6.8,7.3c-4.2,2.6-7.2,6.3-7.8,11.5"/>
	<path fill="none" stroke="#808080" stroke-width="0.25" stroke-linecap="round" stroke-linejoin="round" stroke-miterlimit="10" d="
		M400,63.8c-5.9-4.6-8.3-11.5-12.1-17.6c-3.2-5.2-6.2-10.5-11.6-13.8c-2.8-1.8-5.8-2.1-8.8-0.5c-2.9,1.5-3.8,4.2-3.8,7.3
		c0,3.1,0.7,6.2,1,9.3c0.6,6-3.7,12.5-10.5,14.3c-6.2,1.7-11.7-0.4-17.1-3.3c-4.4-2.4-8-5.9-11.8-9c-6.9-5.7-12.8-12.3-19.6-18.1
		c-4.7-3.9-9.8-6.8-16.3-6.3c-5.8,0.5-9.3,5.8-8.2,10.6c2.1,8.9,5.8,16.8,11.2,24.1c3.2,4.3,5,9.1,5.7,14.5
		c0.7,5.4,0.6,10.6-1.2,15.6c-1.9,5.1-5.8,8.5-10.7,11.2c-4.6,2.5-9.5,4.1-13.9,6.9c-5.7,3.7-9.3,8.4-10.1,15.4
		c-0.4,3.2-0.6,6.3,0,9.6c1.1,5.5,4.8,8,9.6,8.8c10.1,1.7,19.6-0.7,28.9-4.5c7.5-3.1,15.2-6.1,23.1-7.9c5.1-1.2,10.4-2.2,15.8-1.6
		c4.3,0.5,8.3,2.2,11.2,5.3c3.4,3.6,6.5,7.5,7.9,12.5c1.9,6.7,1.3,13.2-1,19.6c-3.2,8.8-8.2,16.6-14.7,23.3
		c-5.7,6-12.4,11.2-19,16.1c-9,6.6-18.3,12.9-28.2,18.1c-8.6,4.5-17.8,7.2-27.3,8.6c-3,0.4-6,1.1-9,1c-6.3-0.2-8.7-2.9-8.9-8.8
		c-0.1-3.1-0.7-6.2-1.2-9.3c-1.1-6.2-0.8-12.4,0.5-18.6c1.1-5.6,2.5-11.3,1.3-17.1c-1-4.7-3.7-5.9-7.5-3.5c-2.9,1.9-5.5,4.2-8.1,6.5
		c-3.5,3.1-7.8,4.3-12.1,4.4c-11.2,0.1-22.2-1.6-32.1-7c-8.6-4.7-15.1-11.4-18.2-21c-2.1-6.5-1.1-12.6,1.3-18.6
		c1.4-3.4,2.9-6.9,3-10.6c0.1-5.8,0-11.8-2.8-17c-3.1-5.9-8.9-8.5-15-10c-1.9-0.4-4.2,0.7-5.7,2.2c-1.4,1.3-2.8,2.5-3.9,4.2
		c-0.9,1.5-2.2,2.8-3.5,4c-3.9,3.7-6,8.2-7,13.3c-1,5-3.1,9.6-5.5,14.1c-2.3,4.4-3.8,9.1-4.9,13.8c-2.8,11.3-17.6,14.4-25.7,7
		c-5.7-5.2-12.2-9.3-18.1-14.3c-4.4-3.7-7.4-8.5-10-13.6c-1.7-3.2-3.2-6.4-5.5-9.3c-4.7-6-11-8-18.2-7.9c-2.8,0-4.6,1.7-5.6,4.5
		c-0.6,1.7-1,3.4-1.9,5.1c-0.9,1.5-2,2-3.6,2c-2.3,0-4.8-0.4-7,0.1c-3.3,0.6-6,2.6-7.6,5.7c-0.4,0.7-0.5,0.8-1.1,2.1
		c-0.5,0.8-0.4,1-0.7,1.7c-1.6,4.4-3.2,8.8-6.8,12.1c-2.2,2-4.7,3.3-7.3,4.5c-4.7,2.1-7.9,5.5-9.3,10.6c-0.4,1.4-1.3,2.7-1.2,4.3"/>
	<path fill="none" stroke="#808080" stroke-width="0.25" stroke-linecap="round" stroke-linejoin="round" stroke-miterlimit="10" d="
		M-0.2,159c1.4-6.6,5.3-11.1,11.6-13.2c5.2-1.7,8.9-4.8,11.6-9.4c0.3-0.5,1.4-2.3,1.6-2.9c1.2-4.8,2.1-8.1,4.4-12.4
		c1.5-2.7,3.8-4.5,6.8-4.7c4-0.3,6.2-2.4,7.5-5.9c1.1-2.8,3.2-4.4,6-5c4.1-0.8,8.1-0.2,11.8,1.5c5.1,2.3,8.2,6.6,10.9,11.5
		c3.3,6,6.5,12.2,11.7,16.9c4.8,4.3,10.3,7.3,15.8,10.6c3.8,2.3,7.7,2.3,11.6,0.3c0.5-0.2,1-0.4,1.5-0.6c6.8-2.5,11.7-6.8,13.4-14.2
		c1.1-4.7,2.6-9.3,5.8-13c3.4-4,5.2-8.6,6.7-13.4c0.3-0.8,0.4-1.7,0.8-2.5c1.9-4.6,4-6.1,9-6c1.7,0,3.3-0.3,4.8-1
		c1.5-0.7,2.8-1.6,4.3-2.2c2.6-1.1,5.5-1.5,8,0c6.6,3.9,11.2,9.6,14.1,16.8c1.6,4,1.7,8.2,2.2,12.3c0,10.2-3.3,17.5-4.2,22.4
		c-0.8,4.2-1,8.3,0.4,12.6c3,9.2,8.9,15.6,17.4,19.8c9.6,4.7,19.7,5.8,29.9,2.7c10.2-3,18.6-9.2,25.6-17.1
		c5.8-6.5,8.2-14.4,8.4-23.1c0.1-6-1.1-11.9-1.8-17.8c-1.1-8.4,1.7-12.7,8.1-15.8c3.9-2,8.2-3.1,12.3-4.5c4.6-1.6,8.9-3.6,12.3-7.3
		c7.2-7.6,6.3-20.3,1.7-28.2c-3-5.2-7.1-9.8-10.1-15.1c-2.7-4.9-5.5-9.7-6.6-15.3c-0.9-4.5-0.6-8.6,3.3-11.5c2.7-2,6.1-2.3,9.3-2.5
		c8.4-0.5,15.4,2.9,21.3,8.5c5,4.7,9.7,9.7,14.6,14.5c3.6,3.5,7.4,6.9,12.1,9c4.3,1.9,8.9,3.2,13.5,1c5.5-2.6,8-7.3,8-13.3
		c0-4.3-0.7-8.5-0.6-12.8c0.1-5.8,1.7-10.2,9.3-11.4c4-0.7,7.7,1.2,11,3.4c5.1,3.4,8.4,8.5,11.5,13.6c4.2,7,6.6,14.9,11.9,21.3"/>
	<path fill="none" stroke="#808080" stroke-width="0.25" stroke-linecap="round" stroke-linejoin="round" stroke-miterlimit="10" d="
		M400.3,264.8c-2-0.2-4.1-0.1-6-0.6c-1.1-0.3-2.2-0.1-3,0.2c-3.7,1.2-7.6,10.8-3.1,14.5c2.4,2,5,3.3,8.1,3.5c1.3,0.1,2.6,0.7,4,0.5"
		/>
	<path fill="none" stroke="#808080" stroke-width="0.25" stroke-linecap="round" stroke-linejoin="round" stroke-miterlimit="10" d="
		M175.9,253.8c5.2-1.4,10.6-1.3,15.8-2.6c3.3-0.8,6.3-2,8.6-4.7c1-1.3,1.7-2.7,1.1-4c-0.7-1.7-2.3-2.8-4.4-2.8
		c-3.7-0.1-7.3,0.2-10.8,1.6c-1,0.4-2.5,0.5-3.7,0.8c-1,0.2-4,0.9-5.1,1.2c-3.1,0.7-6.2,0.7-9.3,0.7c-3.3,0-6.6,0.1-9.8,0.7
		c-4,0.8-6.9,3.6-7.5,7.3c-0.6,3.8,0.7,5.6,4.5,6.3c3.8,0.7,7.3-0.5,10.8-1.6C167.4,256.3,173.7,254.5,175.9,253.8z"/>
	<path fill="none" stroke="#808080" stroke-width="0.25" stroke-linecap="round" stroke-linejoin="round" stroke-miterlimit="10" d="
		M170.6,253.8c3.6-1.2,8-2,12.1-2.5c2.6-0.3,5.3-0.6,7.5-2.3c1.3-1,2.3-2.3,1.7-4c-0.6-1.7-2.3-2.1-4-2.3c-1.9-0.2-6.4,0.8-8.3,1.5
		c-3.7,1.4-7.7,1.4-11.6,1.5c-1.9,0-3.6,0.4-5.2,1.1c-1.9,0.8-2.5,3-2,5c0.5,2,1.9,3.2,4.3,2.9C168.7,254.3,167,254.7,170.6,253.8z"
		/>
	<path fill="none" stroke="#808080" stroke-width="0.25" stroke-linecap="round" stroke-linejoin="round" stroke-miterlimit="10" d="
		M265.8,218.3c3.5-1.6,6.4-4,8.8-7c0.9-1,1.1-2.4,0.6-3.2c-0.7-1.1-2.3-0.7-3.4-0.5c-2.8,0.5-7.3,5.6-7.8,8.5
		C263.9,217.3,264.7,218.7,265.8,218.3z"/>
	<path fill="none" stroke="#808080" stroke-width="0.25" stroke-linecap="round" stroke-linejoin="round" stroke-miterlimit="10" d="
		M30.7,54c-1.6-2.9-2.5-3.6-4.5-2.7c-2.4,1-3.7,3.2-4.5,5.5c-0.4,1.3,2,3,3.7,2.5c2.5-0.8,4.8-2,5.3-5"/>
	<path fill="none" stroke="#808080" stroke-width="0.25" stroke-linecap="round" stroke-linejoin="round" stroke-miterlimit="10" d="
		M400.3,267.3c-1.7,0.4-3.3,0.9-4.8,1.8c-2.9,1.7-3.3,5-1.3,7.5c1.6,1.9,3.6,3.1,6,3.5"/>
	<path fill="none" stroke="#808080" stroke-width="0.25" stroke-linecap="round" stroke-linejoin="round" stroke-miterlimit="10" d="
		M370.4,258.3c-6.4,3.4-12.2,7.5-15.3,14.3c-2.2,4.8-0.5,8.4,5.2,8.5c3.2,0,6.4-0.7,9.5-1.5c3.6-1,5.1-4,5.5-7.3
		c0.4-3.6,0.1-7.3-1-10.8c-0.6-1.8-1.2-3.7-3.7-3.3"/>
	<path fill="none" stroke="#808080" stroke-width="0.25" stroke-linecap="round" stroke-linejoin="round" stroke-miterlimit="10" d="
		M368.8,261.8c-4.6,2.3-8.4,5.4-10.8,10.1c-0.9,1.8-1.5,3.8-0.2,5.5c1.3,1.7,3.4,1.9,5.5,1.3c1.7-0.5,3.5-0.6,5.3-1.1
		c1.9-0.6,3.2-2,3.6-3.4c1.1-3.3,1.3-6.9-0.1-10.3c-0.6-1.4-1.5-2.2-3-2"/>
	<path fill="none" stroke="#808080" stroke-width="0.25" stroke-linecap="round" stroke-linejoin="round" stroke-miterlimit="10" d="
		M104,65.8c-3.2,0.7-5.7,2.7-8.3,4.5c-2.7,1.8-5.6,3.3-8.5,4.5c-2.9,1.2-5.3,3-5.7,6.3C81,85,83,87.8,86.9,88.4
		c7.3,1.2,13.3-1,17.1-7.8c1.6-2.9,3.8-5.4,5.1-8.5c1.9-4.4,0.7-6.3-4.1-6.3c-0.3,0-0.5,0-0.8,0"/>
	<path fill="none" stroke="#808080" stroke-width="0.25" stroke-linecap="round" stroke-linejoin="round" stroke-miterlimit="10" d="
		M367.3,265.3c-3.2,1.5-5.4,4-6.8,7.3c-0.8,1.9,0.1,3.7,2,4c4.9,0.8,9.5-4.6,8-9.3c-0.5-1.4-1.3-2.3-3-2"/>
	<path fill="none" stroke="#808080" stroke-width="0.25" stroke-linecap="round" stroke-linejoin="round" stroke-miterlimit="10" d="
		M210.6,31.9c-5.6,0.9-6.8,3.3-5.5,8.8c1.1,4.8,2.8,9.3,6.8,12.6c5.3,4.3,10.9,1.3,11.9-4.8c1.3-8.3-3.1-13.8-9.2-16.1
		C213.3,31.9,211.9,31.9,210.6,31.9z"/>
	<path fill="none" stroke="#808080" stroke-width="0.25" stroke-linecap="round" stroke-linejoin="round" stroke-miterlimit="10" d="
		M366.3,268.3c-1.4,0.7-2.2,2.1-3,3.3c-0.4,0.7-0.7,1.8,0.2,2.5c0.9,0.7,1.8,0.3,2.5-0.3c0.6-0.4,1.1-1.1,1.5-1.7
		c1.3-1.7,1.1-2.6-1-3.8"/>
	<path fill="none" stroke="#808080" stroke-width="0.25" stroke-linecap="round" stroke-linejoin="round" stroke-miterlimit="10" d="
		M209.6,28.4c-1.5,0.2-3.1,0.3-4.5,0.7c-5.3,1.5-6.9,3.6-6,9.1c1,6.3,3.1,12.2,7,17.3c3.1,4,7,6.9,12.3,7c6.7,0.2,10-2.8,11.7-9.1
		c1.9-7.1,0.8-14.1-5.1-19.6c-3.4-3.1-7.4-4.5-11.8-5.2C211.9,28.5,210.7,28.5,209.6,28.4z"/>
	<path fill="none" stroke="#808080" stroke-width="0.25" stroke-linecap="round" stroke-linejoin="round" stroke-miterlimit="10" d="
		M22.9,43.7c-3.1,0.8-4.9,3.1-6.3,5.8c-1,2.1-2,4.1-3.3,6c-2.9,4.5-1.5,7.5,4,8.2c4.1,0.5,8.2-0.2,11.8-2c6.4-3.3,5.9-11.5,0.3-16
		c-1.9-1.5-3.9-2.2-6.3-2"/>
	<path fill="none" stroke="#808080" stroke-width="0.25" stroke-linecap="round" stroke-linejoin="round" stroke-miterlimit="10" d="
		M111.8,55c-4.6,0.6-8.2,3.3-12.1,5.5c-6.7,4-13.7,5.6-21.4,3c-0.6-0.2-1.2-0.4-1.8-0.5c-3.8-1-6,0.9-6.3,4.8
		c-0.5,6.2,2.4,11.3,5.4,16.3c1.8,3,3.3,6.1,4.7,9.3c2,4.7,4.7,6.6,9.8,6.5c2.2,0,4.3,0,6.6-0.4c1.8-0.3,3-1,3.8-2.6
		c1.1-2.3,2.6-4.4,4.8-5.7c2.9-1.7,3.8-4.5,4.2-7.3c0.4-3.3,1.9-5.8,4.1-8c2.4-2.5,4.8-4.9,6.8-7.8c3.4-4.7-1-13.1-7.1-13.1
		c-0.4,0-0.8,0-1.3,0"/>
	<path fill="none" stroke="#808080" stroke-width="0.25" stroke-linecap="round" stroke-linejoin="round" stroke-miterlimit="10" d="
		M24.9,47.2c-4.7,1.8-6.2,6.2-7.7,10.3c-0.7,1.9,0.5,3.5,2.7,3.7c2.6,0.2,5.3,0.2,7.8-0.9c3.1-1.5,4.9-4.1,4.5-6.8
		c-0.5-3.3-3.5-6-7-6.3"/>
	<path fill="none" stroke="#808080" stroke-width="0.25" stroke-linecap="round" stroke-linejoin="round" stroke-miterlimit="10" d="
		M298.2,176.9c-2.6,0.4-4.4,0.9-6.3,2c-1.9,1-3.4,2.2-4.5,4.1c-1.4,2.5-1.1,3.9,1.5,5c5.4,2.3,13.1-0.6,15.3-6c1-2.5-0.4-4.8-3.3-5
		C300.1,176.8,299.2,176.9,298.2,176.9z"/>
	<path fill="none" stroke="#808080" stroke-width="0.25" stroke-linecap="round" stroke-linejoin="round" stroke-miterlimit="10" d="
		M395.5,175.4c-2.2,1-4.3,2.3-5.5,4.5c-0.8,1.6-1.1,3.4,0,5c1.8,2.6,3.7,2.7,6.3,0.5c1.8-1.5,2.9-3.6,3.2-5.8
		c0.5-3.2-0.7-4.3-3.7-4.3"/>
	<path fill="none" stroke="#808080" stroke-width="0.25" stroke-linecap="round" stroke-linejoin="round" stroke-miterlimit="10" d="
		M208.8,30.1c-8.7,1.5-7.6,6.1-6.3,11.6c1.1,4.3,2.6,8.4,5.5,11.8c2.6,3,5.6,5.1,9.8,5.3c4.4,0.3,8.3-2.9,9.2-8.4
		c1.5-9.1-1.8-16.1-11.5-19.6C213.4,30.2,211.1,30,208.8,30.1z"/>
	<path fill="none" stroke="#808080" stroke-width="0.25" stroke-linecap="round" stroke-linejoin="round" stroke-miterlimit="10" d="
		M304.3,169.3c-4.4,0.8-10.2,4.1-15.1,6.5c-1.1,0.6-2.3,1.2-3.3,2c-5.8,4.4-2.7,11.7,2.8,13.6c5.8,1.9,11.1,0.5,15.2-3.6
		c3.3-3.3,6.2-7.1,8.4-11.2c2-3.8-0.2-7.3-4.5-7.3C306.6,169.3,305.7,169.1,304.3,169.3z"/>
	<path fill="none" stroke="#808080" stroke-width="0.25" stroke-linecap="round" stroke-linejoin="round" stroke-miterlimit="10" d="
		M312.8,161.3c-5.1,1-9.8,3.5-14.3,6c-4.1,2.3-8.5,3.8-12.8,5.8c-6,2.8-6.8,6.2-6.5,10c0.5,6.5,4,11,9.2,12.3
		c8.4,2.2,18.5-2.9,22.1-10.1c1.8-3.5,4.1-6.5,6.8-9.3c1.5-1.5,2.7-3.3,3.5-5.3c2.1-5.3,0.2-8.6-6-9.5
		C314.2,161.2,313.5,161.3,312.8,161.3z"/>
	<path fill="none" stroke="#808080" stroke-width="0.25" stroke-linecap="round" stroke-linejoin="round" stroke-miterlimit="10" d="
		M204,75.4c-3,1.2-3.5,3.9-2.9,6.5c1.2,5.2,2.2,10.6,5.4,15.1c0.9,1.2,1.9,2.4,2.9,3.4c3.2,3.2,4.7,7.5,7.2,11.1
		c0.8,1.2,1.8,2.3,2.8,3.2c2.3,2,4.9,1.1,5.8-2c0.5-1.9,0.4-3.9,0.2-5.8c-0.8-6,1.2-11.3,3.6-16.6c1.1-2.4,1.5-4.9,2.2-7.3
		c0.3-1.2-0.3-2.3-0.6-3.2c-0.6-1.8-2.5-2-3.9-0.5c-2.2,2.3-2.7,5.3-3,8.3c-0.2,2-0.7,4-1.6,5.7c-1.1,2.2-3.7,3.1-6,2.5
		c-2.7-0.6-3.9-2.5-4.5-5c-0.7-2.8,0.1-5.5,0-8.3C211.5,77.8,208.7,74.4,204,75.4"/>
	<path fill="none" stroke="#808080" stroke-width="0.25" stroke-linecap="round" stroke-linejoin="round" stroke-miterlimit="10" d="
		M207,26.6c-2.8,0.6-5.6,0.9-8.3,2c-3.1,1.3-4.5,2.7-3.5,6.5c1.5,5.6,2.9,11.3,5.3,16.6c3.2,7,8.2,12.3,16.2,14.1
		c6.8,1.5,13.8-1.6,16.2-9.4c1.9-6.1,1.4-12.5-1.5-18.3c-3-6-8.3-9.2-14.8-10.6C213.7,27,210.3,26.5,207,26.6z"/>
	<path fill="none" stroke="#808080" stroke-width="0.25" stroke-linecap="round" stroke-linejoin="round" stroke-miterlimit="10" d="
		M122.4,43c-6.5,1-12.1,3.7-17.6,7.2c-11.6,7.4-24,8.9-36.9,3.4c-2.3-1-4.4-2.3-7-2.3c-4-0.1-6.2,2.2-6.5,6.5
		c-0.8,8.9,2.1,16.5,8,23.1c3.3,3.7,6.9,7.1,10.1,11c3,3.7,5.3,7.7,7,12.1c2.2,5.6,5.4,7.6,12.1,8c1.3,0.1,2.7-0.1,4,0
		c3.2,0.3,5.5-1.3,6.2-4.1c1.2-4.7,4.3-7.6,8.1-10c3.4-2.1,5.1-5.3,4.8-9.3c-0.6-6.3,2.6-10.8,6.8-14.8c2.9-2.7,6.3-4.9,9.1-7.8
		c4.4-4.5,5-13.3,2.2-18.6c-2.2-4.1-6-4.6-10-4.5"/>
	<path fill="none" stroke="#808080" stroke-width="0.25" stroke-linecap="round" stroke-linejoin="round" stroke-miterlimit="10" d="
		M336.7,132.4c-7.5,0.3-14,2.3-20.6,4.8c-9.4,3.6-18.9,7.1-28.9,8.8c-4.6,0.8-9.3,1.5-13.8,2.8c-9.4,2.7-15.1,8.1-17.1,18
		c-1.4,6.9-0.7,13.9-0.2,20.9c0.6,8.7,0.3,17.2-2,25.6c-0.9,3.4-1.3,6.9-0.4,10.6c0.9,3.7,4.7,6.3,9.2,5.5
		c18.3-3.2,34.2-11.9,49.7-21.4c8-4.9,15.8-10.3,22.9-16.6c8-7.1,15.2-14.9,19.1-25.1c3.2-8.3,3.4-16.5-0.7-24.6
		c-3-5.9-7.8-8.5-14.1-9C338.7,132.6,337.7,132.5,336.7,132.4z"/>
	<path fill="none" stroke="#808080" stroke-width="0.25" stroke-linecap="round" stroke-linejoin="round" stroke-miterlimit="10" d="
		M179.4,246c-0.6-0.1-5.8,1.4-8.8,1.3c-1.2-0.1-1.7,1.3-1,2.2c1,1.2,2.3,1.7,3.8,1.5c1.9-0.3,3.8-0.8,5.8-0.7
		c1.7,0.1,3.4-0.2,3.5-2.3C182.7,245.8,180.7,246.2,179.4,246z"/>
	<path fill="none" stroke="#808080" stroke-width="0.25" stroke-linecap="round" stroke-linejoin="round" stroke-miterlimit="10" d="
		M22.4,39.9c-4.3,0.4-7.1,2.8-8.7,6.6c-1.7,3.8-3.7,7.4-5.8,11C6,60.6,6.9,63,10,64.8c2.5,1.5,5.1,1.3,7.8,1.2
		c3.3-0.1,6.6-0.7,9.8-1.7c6.4-2,9.5-7.6,6.9-14.8c-1.4-4-4.2-7.4-8.6-8.9c-1.1-0.4-2.3,0-3.3-0.7"/>
	<path fill="none" stroke="#808080" stroke-width="0.25" stroke-linecap="round" stroke-linejoin="round" stroke-miterlimit="10" d="
		M170.4,26.1c-1.1,0.7-2.9,0.9-2.5,2.7c0.5,1.7,2.1,1.9,3.7,1.8c0.3,0,0.7,0,1,0c1.4,0,2.4-0.7,2.7-2c0.4-1.5-0.9-1.8-2-2.3
		c-0.9-0.4-1.9-0.1-2.8-0.2"/>
	<path fill="none" stroke="#808080" stroke-width="0.25" stroke-linecap="round" stroke-linejoin="round" stroke-miterlimit="10" d="
		M320.1,153.5c-5.5,0.7-10.3,3.5-14.8,6.3c-6.3,4-13.2,6.4-20.1,9c-4,1.5-7.9,3.4-9,8c-2.1,9,1,20.6,12.3,22.5
		c9.5,1.6,17.3-2,23.6-9.2c1.5-1.7,2.6-3.7,3.5-5.8c1.9-4.4,4.9-8,8.3-11.3c2.2-2,4-4.4,5.2-7.1c3.2-6.8,0-12.6-7.8-12.6
		C320.9,153.5,320.5,153.5,320.1,153.5z"/>
	<path fill="none" stroke="#808080" stroke-width="0.25" stroke-linecap="round" stroke-linejoin="round" stroke-miterlimit="10" d="
		M325.9,145.7c-6.1,1.2-11.4,4.5-16.3,7.8c-7.3,5-15.4,7.9-23.7,10.7c-2.8,0.9-5.5,2-8.1,3.5c-3.2,1.9-5.2,4.7-5.7,8.3
		c-0.8,6.2-0.3,12.4,2.7,18.1c3.3,6.3,8.7,9,15.6,9.3c8.8,0.4,16.2-2.8,22.6-8.6c3.5-3.2,5.9-7.3,7.6-11.7c1.7-4.4,4.6-8,8-11.3
		c3-2.9,5.9-5.8,8-9.3c1.7-3,2.8-6.2,2.1-9.8c-0.7-3.7-4.3-6.9-8.1-7C329.1,145.7,327.5,145.7,325.9,145.7z"/>
	<path fill="none" stroke="#808080" stroke-width="0.25" stroke-linecap="round" stroke-linejoin="round" stroke-miterlimit="10" d="
		M155-31.9c-11,1.5-15.2,10.6-14.1,20.9c0.6,5.3,2.4,10.4,3.5,15.6c1.4,6.5,2.1,13,1.6,19.6c-0.6,7-2,14-0.9,21.1
		c1.4,8.8,5.9,13,14.9,14.6c5,0.9,10.1,1.5,14.6,4.4c4.8,3.2,7.4,7.8,9.3,13.1c1.6,4.4,2,9,3,13.6c0.8,3.7,1.4,7.4,2.3,11
		c0.3,1.1,0.1,2.2,0.2,3.3c0.2,5.4-0.4,10.7,1,16.1c1,4.2,3.1,8,5.7,11.2c4.7,5.8,9.9,11.2,16.2,15.5c4.8,3.2,13.1,3,17.2-1.5
		c4.6-5.1,8.8-10.3,10.9-17.1c2-6.3,2.1-12.7,1.9-19.1c-0.1-3.3-0.4-6.6,0.3-9.8c1.1-4.9,5-7.6,8.8-10c4.5-2.8,9.1-5.4,13.3-8.6
		c3.5-2.7,6.5-5.9,7.8-10.3c1.4-4.9-0.1-9.2-2.5-13.3c-3.3-5.6-7.2-10.8-10-16.6c-2.4-5-3.1-10.3-1-15.5c1.3-3.4,3.8-6.2,6-9.1
		c1.8-2.4,3.6-4.8,4.8-7.5c2.2-5.4,0-7.7-4.5-9c-4.3-1.2-8.7-0.2-13.1,0.4c-6.6,0.9-13.4,1.5-19.1-3.4c-2.4-2.1-4-4.8-5.8-7.3
		c-2.2-3.1-4.1-6.3-7.3-8.6c-3.7-2.7-7.5-3-11.6-1c-3.7,1.8-6.2,4.9-8.8,8c-2.1,2.5-4.2,5-6.8,7.1c-6.1,5.1-12.3,3.4-16.4-2.8
		c-3.4-5.1-4.5-11.1-7.5-16.4c-3-5.3-7.2-8.6-13.6-8.5"/>
	<path fill="none" stroke="#808080" stroke-width="0.25" stroke-linecap="round" stroke-linejoin="round" stroke-miterlimit="10" d="
		M205.8,24.6c-2.5,0-5,0.2-7.3,0.7c-2.6,0.6-5,1.5-6.8,3.5c-1.9,2.1-2.6,5.4-0.9,7.7c4.2,5.8,6.2,12.6,8.7,19.2
		c1.6,4.2,4.2,7.4,7.8,9.8c2.6,1.7,5.2,3.4,7.6,5.5c1.5,1.4,3.4,1.7,5.2,1c4.3-1.7,8.6-3.5,12.8-5.5c6-2.9,7.8-8.4,7-15.8
		c-0.2-2.1-0.8-4.3-1.6-6.3c-0.9-2.3-1.2-4.9-1.1-7.5c0.1-4.7-1.8-7.4-6.3-8.8C222.7,25.6,214.4,24.4,205.8,24.6z"/>
	<path fill="none" stroke="#808080" stroke-width="0.25" stroke-linecap="round" stroke-linejoin="round" stroke-miterlimit="10" d="
		M159.3-3c-3,1.8-4,5.1-3.3,8.8c1.1,6.5,3.6,12.9,3.3,19.6c-0.2,4.4-1,8.7-1,13.1c0.1,4.8,2.9,7.2,7.6,4.8c2.9-1.5,5.7-3.2,9-3.8
		c2.8-0.6,5.4-0.1,7.5,1.8c3.9,3.5,5.6,8.3,7,13.1c1.6,5.3,3.8,10.4,6.2,15.3c3,6,2.7,12.2,2.1,18.4c-0.5,5.5,0.2,10.7,2.9,15.3
		c3.4,5.8,6.5,11.7,9.4,17.6c1.3,2.7,2.9,5.1,5,7.3c3.7,3.9,9.3,3.2,12.1-1.3c1.8-3,2.8-6.3,3-9.8c0.5-7.5,0.6-15.1,1.6-22.6
		c1.2-9.4,6.2-16.3,15.5-19.6c2.5-0.9,4.8-2,7.1-3.5c4.7-3.1,5.4-7.2,4.2-12.1c-1.3-5.4-4.6-10-6.8-15.1c-1.5-3.4-2.2-6.9-1.7-10.6
		c0.7-5.1,1.3-10.3-1.3-15.1c-1.9-3.5-4.9-5.5-9-6.1c-3.2-0.5-6.4-0.5-9.6-0.4c-4.5,0.2-8.7-1.3-12.5-3.2
		c-5.9-2.8-11.3-2.1-16.6,1.1c-4.5,2.7-9.1,5.1-14.3,5.7c-7.3,0.9-13.5,0.4-17.4-8c-1.2-2.7-2.4-5.4-4.2-7.8c-1.4-1.9-3.1-3.1-5.5-3
		"/>
	<path fill="none" stroke="#808080" stroke-width="0.25" stroke-linecap="round" stroke-linejoin="round" stroke-miterlimit="10" d="
		M20.4,36.4c-4.7,0.5-7.9,3.2-9.7,7.3c-2.1,4.7-4.5,9.2-7.1,13.6C0.4,62.6,2.1,66.1,8,67.9c3.1,0.9,6.2,0.6,9.3,0.4
		c3.5-0.2,6.9-0.8,10.3-1.8c7.7-2.3,11.3-9.4,8.5-17.7c-1.7-4.8-4.9-8.7-9.5-11c-1.8-0.9-3.9-1.3-6-1.3"/>
	<path fill="none" stroke="#808080" stroke-width="0.25" stroke-linecap="round" stroke-linejoin="round" stroke-miterlimit="10" d="
		M210.8,33.2c-3.8,0.4-4,3.1-3.3,6.8c0.8,4.2,2.2,8.1,5.8,10.8c1.3,1,2.8,1.5,4.5,0.8c1.9-0.9,2.5-2.6,2.8-4.5
		C221.6,39.6,216.7,33.2,210.8,33.2z"/>
	<path fill="none" stroke="#808080" stroke-width="0.25" stroke-linecap="round" stroke-linejoin="round" stroke-miterlimit="10" d="
		M333.4,137.7c-6.3,1.1-11.8,4.4-16.8,8c-10,7.2-21.2,11.6-32.9,15.1c-4,1.2-7.9,2.7-11.1,5.7c-2.4,2.3-3.9,5.1-4.1,8.1
		c-0.5,7.6-0.4,15.2,3.4,22.1c3.4,6,8.4,9.4,15.3,10.3c15.9,2.3,30.2-7.9,36.4-19.9c1.6-3.1,2.5-6.5,4.3-9.5
		c2.7-4.4,6.4-8,10.1-11.6c3.5-3.4,6.7-7.1,8.5-11.8c2.5-6.6,1.3-11.7-3.8-15C339.9,137.4,336.6,137.6,333.4,137.7z"/>
</g>
</svg>
