<?xml version="1.0" encoding="utf-8"?>
<!-- Generator: Adobe Illustrator 16.0.0, SVG Export Plug-In . SVG Version: 6.00 Build 0)  -->
<!DOCTYPE svg PUBLIC "-//W3C//DTD SVG 1.1//EN" "http://www.w3.org/Graphics/SVG/1.1/DTD/svg11.dtd">
<svg version="1.1" id="Layer_1" xmlns="http://www.w3.org/2000/svg" xmlns:xlink="http://www.w3.org/1999/xlink" x="0px" y="0px"
	 width="33.65px" height="31.948px" viewBox="0 0 33.65 31.948" enable-background="new 0 0 33.65 31.948" xml:space="preserve">
<g>
	<path fill-rule="evenodd" clip-rule="evenodd" d="M13.832,0.538l0.494,0.559L4.997,9.84L4.503,9.284L13.832,0.538z"/>
	<polygon points="4.972,10.377 3.98,9.26 13.857,0 14.849,1.121 	"/>
</g>
<g>
	<path fill-rule="evenodd" clip-rule="evenodd" d="M19.817,0.538l-0.494,0.559l9.33,8.744l0.494-0.557L19.817,0.538z"/>
	<polygon points="28.678,10.377 18.8,1.121 19.792,0 29.67,9.26 	"/>
</g>
<g>
	<path fill-rule="evenodd" clip-rule="evenodd" d="M29.149,9.307l-0.741-0.105l-3.235,22.217l0.742,0.105L29.149,9.307z"/>
	<polygon points="26.232,31.948 24.747,31.737 28.09,8.778 29.574,8.989 	"/>
</g>
<g>
	<path fill-rule="evenodd" clip-rule="evenodd" d="M0.529,1.308L1.24,1.075l3.975,7.975L4.503,9.284L0.529,1.308z"/>
	<polygon points="4.312,9.741 0,1.087 1.431,0.617 5.744,9.27 	"/>
</g>
<g>
	<path fill-rule="evenodd" clip-rule="evenodd" d="M33.121,1.308L32.41,1.075l-3.974,7.975l0.711,0.234L33.121,1.308z"/>
	<polygon points="29.338,9.742 27.907,9.27 32.219,0.617 33.65,1.087 	"/>
</g>
<g>
	<path fill-rule="evenodd" clip-rule="evenodd" d="M4.503,9.307l0.742-0.105L8.48,31.418l-0.742,0.105L4.503,9.307z"/>
	<polygon points="7.421,31.948 4.078,8.989 5.562,8.778 8.906,31.737 	"/>
</g>
<g>
	<path fill-rule="evenodd" clip-rule="evenodd" d="M5.296,13.827v-0.75h23.082v0.75H5.296z"/>
	<path d="M28.753,14.202H4.921v-1.5h23.832V14.202z M5.671,13.452h22.332H5.671z"/>
</g>
<g>
	<path fill-rule="evenodd" clip-rule="evenodd" d="M7.738,31.535l0.661-0.75h17.516v0.75H7.738z"/>
	<path d="M26.29,31.91H6.908l1.321-1.5h18.06V31.91z M8.568,31.16H25.54H8.568z"/>
</g>
<g>
	<path fill-rule="evenodd" clip-rule="evenodd" d="M13.832,1.366V0.538h5.985v0.828H13.832z"/>
	<path d="M20.192,1.741h-6.735V0.163h6.735V1.741z M14.207,0.991h5.235V0.913h-5.235V0.991z"/>
</g>
</svg>
