<?xml version="1.0" encoding="utf-8"?>
<!-- Generator: Adobe Illustrator 16.0.0, SVG Export Plug-In . SVG Version: 6.00 Build 0)  -->
<!DOCTYPE svg PUBLIC "-//W3C//DTD SVG 1.1//EN" "http://www.w3.org/Graphics/SVG/1.1/DTD/svg11.dtd">
<svg version="1.1" id="Layer_1" xmlns="http://www.w3.org/2000/svg" xmlns:xlink="http://www.w3.org/1999/xlink" x="0px" y="0px"
	 width="22.941px" height="18.387px" viewBox="0 0 22.941 18.387" enable-background="new 0 0 22.941 18.387" xml:space="preserve">
<g>
	<path d="M18.834,4c-1.13,0-1.687-0.737-2.177-1.386c-0.494-0.653-0.831-1.052-1.508-1.052c-0.676,0-1.013,0.399-1.505,1.051
		C13.153,3.263,12.596,4,11.466,4c-1.13,0-1.687-0.737-2.176-1.387C8.796,1.961,8.46,1.562,7.785,1.562
		c-0.677,0-1.013,0.399-1.505,1.052C5.788,3.263,5.232,4,4.102,4C2.972,4,2.416,3.263,1.924,2.613
		C1.433,1.961,1.097,1.562,0.421,1.562C0.188,1.562,0,1.373,0,1.141C0,0.908,0.188,0.72,0.421,0.72c1.128,0,1.685,0.736,2.175,1.387
		c0.493,0.652,0.829,1.052,1.505,1.052c0.677,0,1.014-0.4,1.506-1.052c0.49-0.65,1.047-1.387,2.177-1.387S9.47,1.457,9.96,2.107
		c0.492,0.652,0.828,1.052,1.505,1.052c0.677,0,1.013-0.4,1.506-1.053c0.491-0.65,1.046-1.386,2.177-1.386
		c1.131,0,1.688,0.737,2.179,1.387c0.493,0.652,0.829,1.052,1.507,1.052c0.679,0,1.016-0.4,1.509-1.053
		c0.491-0.65,1.048-1.386,2.177-1.386c0.233,0,0.421,0.188,0.421,0.421c0,0.231-0.188,0.42-0.421,0.42
		c-0.677,0-1.013,0.399-1.506,1.051C20.523,3.263,19.965,4,18.834,4z"/>
</g>
<g>
	<path d="M18.834,3.28c-1.13,0-1.687-0.737-2.177-1.386c-0.494-0.653-0.831-1.052-1.508-1.052c-0.676,0-1.013,0.399-1.505,1.051
		c-0.491,0.65-1.048,1.387-2.178,1.387c-1.13,0-1.687-0.737-2.176-1.387C8.796,1.241,8.46,0.841,7.785,0.841
		c-0.677,0-1.013,0.399-1.505,1.052C5.788,2.543,5.232,3.28,4.102,3.28c-1.129,0-1.686-0.737-2.177-1.387
		C1.433,1.241,1.097,0.841,0.421,0.841C0.188,0.841,0,0.652,0,0.421C0,0.188,0.188,0,0.421,0c1.128,0,1.685,0.736,2.175,1.387
		c0.493,0.652,0.829,1.052,1.505,1.052c0.677,0,1.014-0.4,1.506-1.052C6.098,0.737,6.655,0,7.785,0S9.47,0.737,9.96,1.387
		c0.492,0.652,0.828,1.052,1.505,1.052c0.677,0,1.013-0.4,1.506-1.053C13.463,0.736,14.018,0,15.148,0
		c1.131,0,1.688,0.737,2.179,1.387c0.493,0.652,0.829,1.052,1.507,1.052c0.679,0,1.016-0.4,1.509-1.053
		C20.833,0.736,21.391,0,22.52,0c0.233,0,0.421,0.188,0.421,0.421c0,0.231-0.188,0.42-0.421,0.42c-0.677,0-1.013,0.399-1.506,1.051
		C20.523,2.543,19.965,3.28,18.834,3.28z"/>
</g>
<g>
	<path d="M18.834,11.387c-1.13,0-1.687-0.737-2.177-1.386c-0.494-0.653-0.831-1.052-1.508-1.052c-0.676,0-1.013,0.399-1.505,1.051
		c-0.491,0.65-1.048,1.387-2.178,1.387c-1.13,0-1.687-0.737-2.176-1.387C8.796,9.348,8.46,8.949,7.785,8.949
		c-0.677,0-1.013,0.399-1.505,1.052c-0.492,0.65-1.047,1.387-2.178,1.387c-1.129,0-1.686-0.737-2.177-1.387
		C1.433,9.348,1.097,8.949,0.421,8.949C0.188,8.949,0,8.76,0,8.528c0-0.233,0.188-0.421,0.421-0.421
		c1.128,0,1.685,0.736,2.175,1.387c0.493,0.652,0.829,1.052,1.505,1.052c0.677,0,1.014-0.4,1.506-1.052
		c0.49-0.65,1.047-1.387,2.177-1.387S9.47,8.844,9.96,9.494c0.492,0.652,0.828,1.052,1.505,1.052c0.677,0,1.013-0.4,1.506-1.053
		c0.491-0.65,1.046-1.386,2.177-1.386c1.131,0,1.688,0.737,2.179,1.387c0.493,0.652,0.829,1.052,1.507,1.052
		c0.679,0,1.016-0.4,1.509-1.053c0.491-0.65,1.048-1.386,2.177-1.386c0.233,0,0.421,0.188,0.421,0.421
		c0,0.231-0.188,0.42-0.421,0.42c-0.677,0-1.013,0.399-1.506,1.051C20.523,10.65,19.965,11.387,18.834,11.387z"/>
</g>
<g>
	<path d="M18.834,10.667c-1.13,0-1.687-0.737-2.177-1.386c-0.494-0.653-0.831-1.052-1.508-1.052c-0.676,0-1.013,0.399-1.505,1.051
		c-0.491,0.65-1.048,1.387-2.178,1.387c-1.13,0-1.687-0.737-2.176-1.387C8.796,8.628,8.46,8.229,7.785,8.229
		c-0.677,0-1.013,0.399-1.505,1.052c-0.492,0.65-1.047,1.387-2.178,1.387c-1.129,0-1.686-0.737-2.177-1.387
		C1.433,8.628,1.097,8.229,0.421,8.229C0.188,8.229,0,8.04,0,7.808c0-0.233,0.188-0.421,0.421-0.421
		c1.128,0,1.685,0.736,2.175,1.387c0.493,0.652,0.829,1.052,1.505,1.052c0.677,0,1.014-0.4,1.506-1.052
		c0.49-0.65,1.047-1.387,2.177-1.387S9.47,8.124,9.96,8.774c0.492,0.652,0.828,1.052,1.505,1.052c0.677,0,1.013-0.4,1.506-1.053
		c0.491-0.65,1.046-1.386,2.177-1.386c1.131,0,1.688,0.737,2.179,1.387c0.493,0.652,0.829,1.052,1.507,1.052
		c0.679,0,1.016-0.4,1.509-1.053c0.491-0.65,1.048-1.386,2.177-1.386c0.233,0,0.421,0.188,0.421,0.421
		c0,0.231-0.188,0.42-0.421,0.42c-0.677,0-1.013,0.399-1.506,1.051C20.523,9.93,19.965,10.667,18.834,10.667z"/>
</g>
<g>
	<path d="M18.834,18.387c-1.13,0-1.687-0.737-2.177-1.386c-0.494-0.653-0.831-1.052-1.508-1.052c-0.676,0-1.013,0.399-1.505,1.051
		c-0.491,0.65-1.048,1.387-2.178,1.387c-1.13,0-1.687-0.737-2.176-1.387c-0.494-0.652-0.83-1.052-1.505-1.052
		c-0.677,0-1.013,0.399-1.505,1.052c-0.492,0.65-1.047,1.387-2.178,1.387c-1.129,0-1.686-0.737-2.177-1.387
		c-0.491-0.652-0.827-1.051-1.503-1.051C0.188,15.949,0,15.76,0,15.528c0-0.233,0.188-0.421,0.421-0.421
		c1.128,0,1.685,0.736,2.175,1.387c0.493,0.652,0.829,1.052,1.505,1.052c0.677,0,1.014-0.4,1.506-1.052
		c0.49-0.65,1.047-1.387,2.177-1.387s1.685,0.737,2.176,1.387c0.492,0.652,0.828,1.052,1.505,1.052c0.677,0,1.013-0.4,1.506-1.053
		c0.491-0.65,1.046-1.386,2.177-1.386c1.131,0,1.688,0.737,2.179,1.387c0.493,0.652,0.829,1.052,1.507,1.052
		c0.679,0,1.016-0.4,1.509-1.053c0.491-0.65,1.048-1.386,2.177-1.386c0.233,0,0.421,0.188,0.421,0.421
		c0,0.231-0.188,0.42-0.421,0.42c-0.677,0-1.013,0.399-1.506,1.051C20.523,17.65,19.965,18.387,18.834,18.387z"/>
</g>
<g>
	<path d="M18.834,17.667c-1.13,0-1.687-0.737-2.177-1.386c-0.494-0.653-0.831-1.052-1.508-1.052c-0.676,0-1.013,0.399-1.505,1.051
		c-0.491,0.65-1.048,1.387-2.178,1.387c-1.13,0-1.687-0.737-2.176-1.387c-0.494-0.652-0.83-1.052-1.505-1.052
		c-0.677,0-1.013,0.399-1.505,1.052c-0.492,0.65-1.047,1.387-2.178,1.387c-1.129,0-1.686-0.737-2.177-1.387
		c-0.491-0.652-0.827-1.051-1.503-1.051C0.188,15.229,0,15.04,0,14.808c0-0.233,0.188-0.421,0.421-0.421
		c1.128,0,1.685,0.736,2.175,1.387c0.493,0.652,0.829,1.052,1.505,1.052c0.677,0,1.014-0.4,1.506-1.052
		c0.49-0.65,1.047-1.387,2.177-1.387s1.685,0.737,2.176,1.387c0.492,0.652,0.828,1.052,1.505,1.052c0.677,0,1.013-0.4,1.506-1.053
		c0.491-0.65,1.046-1.386,2.177-1.386c1.131,0,1.688,0.737,2.179,1.387c0.493,0.652,0.829,1.052,1.507,1.052
		c0.679,0,1.016-0.4,1.509-1.053c0.491-0.65,1.048-1.386,2.177-1.386c0.233,0,0.421,0.188,0.421,0.421
		c0,0.231-0.188,0.42-0.421,0.42c-0.677,0-1.013,0.399-1.506,1.051C20.523,16.93,19.965,17.667,18.834,17.667z"/>
</g>
</svg>
