<?xml version="1.0" encoding="utf-8"?>
<!-- Generator: Adobe Illustrator 16.0.0, SVG Export Plug-In . SVG Version: 6.00 Build 0)  -->
<!DOCTYPE svg PUBLIC "-//W3C//DTD SVG 1.1//EN" "http://www.w3.org/Graphics/SVG/1.1/DTD/svg11.dtd">
<svg version="1.1" id="Layer_1" xmlns="http://www.w3.org/2000/svg" xmlns:xlink="http://www.w3.org/1999/xlink" x="0px" y="0px"
	 width="244.788px" height="73.317px" viewBox="0 0 244.788 73.317" enable-background="new 0 0 244.788 73.317"
	 xml:space="preserve">
<g>
	<g opacity="0.95">
		<g>
			<path d="M201.292,50.825c0-15.728-0.004-12.457-0.004-25.991h-5.324v26.751c-0.64,0.428-1.771,0.854-3.337,0.854
				c-1.983,0-3.263-1.35-3.263-4.613V24.833h-5.323v22.208c0,6.889,3.193,9.941,8.374,9.941c4.188,0,6.832-1.715,9.213-2.195
				c-0.009-0.041-0.017-0.078-0.026-0.119C201.53,54.569,201.322,53.858,201.292,50.825"/>
		</g>
	</g>
	<g opacity="0.95">
		<g>
			<path d="M179.164,5.816c1.28,0,1.692,0.46,2.047,0.601l1.694-4.708c0,0-1.837-1.068-3.954-1.068
				c-5.834,0-7.923,3.789-7.924,9.521c0,7.805-0.002,55.016-0.002,62.811l5.327-2.684V30.604h4.928v-5.771h-4.928v-0.224
				c0-0.021,0.008-14.447-0.013-14.447C176.339,9.021,176.502,5.816,179.164,5.816"/>
		</g>
	</g>
	<g opacity="0.95">
		<g>
			<path d="M157.701,24.049c-6.489,0.048-9.872,5.597-9.872,16.256c0,10.979,3.486,16.676,9.872,16.676s9.872-5.697,9.872-16.676
				C167.573,29.646,164.189,24.098,157.701,24.049 M157.701,52.202c-2.851,0-4.432-3.074-4.432-11.896
				c0-8.369,1.501-11.335,4.432-11.335c2.93,0,4.445,3.715,4.431,11.335C162.116,48.858,160.55,52.202,157.701,52.202"/>
		</g>
	</g>
	<g opacity="0.95">
		<g>
			<path d="M244.219,54.668c-0.54-0.742-0.313-12.207-0.313-29.809h-5.325v26.725c-1.225,0.816-6.601,2.699-6.601-3.76V24.86h-5.321
				v22.182c0,6.889,3.192,9.939,8.374,9.939c4.188,0,6.831-1.713,9.212-2.193C244.235,54.747,244.227,54.709,244.219,54.668"/>
		</g>
	</g>
	<g opacity="0.95">
		<g>
			<path d="M216.771,37.628l6.602-12.768h-0.078h-6.235h-0.015l-5.817,12.067c0,0,0.047-36.509,0.047-36.927l-5.375,2.682V56h5.375
				V38.756h0.145L218.585,56h5.388c0.051,0.002,0.096-0.002,0.146,0l-0.018-0.039L224.431,56L216.771,37.628z"/>
		</g>
	</g>
	<g opacity="0.95">
		<g>
			<path d="M137.875,24.06c-2.555,0-4.797,1.634-6.569,3.479c-0.639-1.845-2.587-3.479-5.427-3.479
				c-2.367,0-4.314,1.528-5.434,2.695v-1.921h-5.323v31.165h5.323V32.345c0-0.796,0.99-1.805,0.99-1.809
				c1.395-1.342,3.858-1.496,4.899,0c0.018,0.023,0.033,0.048,0.049,0.072c0.002,0.002,0.002,0.003,0.004,0.005
				c0.422,0.627,0.66,1.569,0.66,2.919v22.466h5.293V32.345c0-0.796,0.99-1.805,0.99-1.809c1.053-1.013,2.716-1.348,3.915-0.807
				c1.888,0.733,1.724,3.478,1.724,5.139V56h5.396V33.075C144.365,26.33,141.423,24.06,137.875,24.06"/>
		</g>
	</g>
	<g opacity="0.95">
		<g>
			<path d="M81.976,24.06c-2.555,0-4.796,1.634-6.57,3.479c-0.638-1.845-2.587-3.479-5.426-3.479c-2.367,0-4.315,1.528-5.434,2.695
				v-1.921h-5.323v31.165h5.323V32.345c0-0.796,0.99-1.805,0.99-1.809c1.395-1.342,3.858-1.496,4.899,0
				c0.017,0.023,0.033,0.048,0.049,0.072c0.002,0.002,0.003,0.003,0.004,0.005c0.888,1.319,0.659,1.095,0.659,25.385h5.294V32.345
				c0-0.796,0.99-1.805,0.99-1.809c1.054-1.013,2.716-1.348,3.915-0.807c1.888,0.733,1.723,3.478,1.723,5.139V56h5.397V33.075
				C88.466,26.33,85.525,24.06,81.976,24.06"/>
		</g>
	</g>
	<g opacity="0.95">
		<g>
			<path d="M101.802,24.049c-6.489,0.048-9.872,5.597-9.872,16.256c0,10.979,3.486,16.676,9.872,16.676
				c6.385,0,9.872-5.697,9.872-16.676C111.674,29.646,108.291,24.098,101.802,24.049 M101.802,52.202
				c-2.85,0-4.431-3.074-4.431-11.896c0-8.369,1.501-11.335,4.431-11.335c2.93,0,4.446,3.715,4.431,11.335
				C106.217,48.858,104.652,52.202,101.802,52.202"/>
		</g>
	</g>
	<path fill="#F5B333" d="M51.064,19.756c-3.265-5.546-10.635-10.425-18.859-9.044c-4.404,0.74-6.926,3.211-8.855,5.14
		c-0.033,0.007-0.057,0.012-0.089,0.019c-3.306-1.213-13.807,7.452-11.079,20.882c1.639,8.091,7.988,12.354,13.445,13.12
		c7.108,0.996,13.405-1.959,16.958-1.738c0,0,0.002-0.002,0.003-0.002c0.074,0.006,0.146,0.01,0.222,0.01l0.002,0.002
		c0.195-0.004,0.337-0.035,0.395-0.244c0.035-0.133-0.001-0.266-0.124-0.49l0.001-0.002c-0.714-1.035,2.088-3.17,3.536-4.258
		c2.744-2.061,5.036-5.733,5.842-9.025C53.162,31.271,54.088,24.895,51.064,19.756"/>
	<path fill="#64A84B" d="M41.82,9.846c0.36-0.222,0.569-0.598,0.145-0.569c-0.559,0.047-1.279-0.031-2.17-0.395
		C37.713,8,35.526,6.761,33.203,6.602c-2.209-0.157-3.291,0.688-4.193,1.936c1.402,0.968,2.633,1.678,3.805,2.148
		c1.918,0.766,3.662,0.88,5.681,0.39c0.152-0.038,0.293-0.075,0.436-0.113c0.765-0.206,1.408-0.436,2.028-0.708h0.001
		c0,0,0.36-0.152,0.806-0.381C41.785,9.864,41.802,9.855,41.82,9.846"/>
	<path fill="#64A84B" d="M14.381,4.546V4.539C8.122,6.244,2.598,10.979,0.232,15.044L0.24,15.04
		c-0.109,0.196-0.024,0.018-0.227,0.414c-0.055,0.108,0.07,0.218,0.17,0.149c0.606-0.425,1.537-0.84,2.93-1.011
		c10.489-1.306,23.623,0.033,25.65-9.735C24.241,3.601,18.738,3.486,14.381,4.546"/>
	<path d="M196.006,67.026c0.016,0.209,0.016,0.465,0.016,0.561c0,1.76-0.577,3.121-1.761,4.227
		c-1.072,0.961-2.465,1.504-3.921,1.504c-3.171,0-5.588-2.385-5.588-5.521c0-3.17,2.401-5.572,5.556-5.572
		c1.793,0,3.409,0.77,4.498,2.113l-1.97,1.521c-0.688-0.85-1.44-1.232-2.448-1.232c-1.713,0-3.011,1.359-3.011,3.186
		c0,1.76,1.378,3.152,3.122,3.152c1.233,0,2.24-0.705,2.674-1.84h-2.625v-2.098H196.006z"/>
	<path d="M201.923,73.108h-2.594V62.432h3.457c1.408,0,2.434,0.256,3.139,0.801c0.735,0.576,1.151,1.537,1.151,2.705
		c0,1.615-0.688,2.705-2.064,3.25l2.353,3.92h-3.104l-2.337-4.129V73.108z M202.755,67.522c1.071,0,1.696-0.543,1.696-1.473
		c0-0.896-0.607-1.488-1.537-1.488h-0.991v2.961H202.755z"/>
	<path d="M221.525,67.795c0,3.057-2.497,5.521-5.586,5.521c-3.185,0-5.715-2.434-5.715-5.506c0-1.553,0.625-2.994,1.793-4.098
		c1.025-0.961,2.417-1.488,3.986-1.488C219.157,62.225,221.525,64.61,221.525,67.795 M212.867,67.778
		c0,1.762,1.327,3.137,3.024,3.137c1.664,0,3.009-1.375,3.009-3.088c0-1.824-1.279-3.201-2.992-3.201
		C214.163,64.625,212.867,65.969,212.867,67.778"/>
	<path d="M227.426,68.643c0,0.799,0.111,1.295,0.367,1.664c0.273,0.369,0.77,0.609,1.313,0.609c0.591,0,1.152-0.289,1.392-0.705
		c0.193-0.354,0.273-0.799,0.273-1.568v-6.211h2.592v6.1c0,1.568-0.368,2.752-1.104,3.553c-0.722,0.785-1.856,1.232-3.139,1.232
		c-1.328,0-2.527-0.48-3.297-1.33c-0.688-0.768-0.992-1.791-0.992-3.455v-6.1h2.594V68.643z"/>
	<path d="M239.746,73.108h-2.593V62.432h3.666c2.529,0,3.969,1.281,3.969,3.506c0,2.24-1.487,3.697-3.809,3.697h-1.233V73.108z
		 M240.466,67.506c1.072,0,1.696-0.543,1.696-1.473c0-0.881-0.607-1.473-1.52-1.473h-0.897v2.945H240.466z"/>
</g>
<g>
</g>
<g>
</g>
<g>
</g>
<g>
</g>
<g>
</g>
<g>
</g>
</svg>
