<?xml version="1.0" encoding="utf-8"?>
<!-- Generator: Adobe Illustrator 16.0.0, SVG Export Plug-In . SVG Version: 6.00 Build 0)  -->
<!DOCTYPE svg PUBLIC "-//W3C//DTD SVG 1.1//EN" "http://www.w3.org/Graphics/SVG/1.1/DTD/svg11.dtd">
<svg version="1.1" id="Layer_1" xmlns="http://www.w3.org/2000/svg" xmlns:xlink="http://www.w3.org/1999/xlink" x="0px" y="0px"
	 width="31px" height="32px" viewBox="150.909 341.963 31 32" enable-background="new 150.909 341.963 31 32" xml:space="preserve">
<path d="M181.909,350.963h-2.593c0.762-1.59,1.176-2.943,1.176-3.667c0,0-27.708-5.333-28.583-5.333c0,1.85,0.216,5.404,1.544,9
	h-2.544c0,0,0.277,3.305,1.834,7h-1.834c0,0,1.415,16,16,16c14.584,0,15-16,15-16h-1.423
	C181.826,354.268,181.909,350.963,181.909,350.963z M166.909,372.463c-10.518,0-13.474-9.168-14.25-13h0.781h0.881h0.829h5.108
	h1.681h2.094h5.019h1.876h1.422h5.859h0.834h0.834h0.39C179.756,363.221,177.43,372.463,166.909,372.463z M174.234,357.963h-1.125
	h-1.188h-11.19h-1.358h-1.224h-3.769c-0.96-2.104-1.47-4.146-1.729-5.5h1.425h0.853h0.833h21.05h0.847h0.872h1.742
	c-0.171,1.332-0.551,3.376-1.388,5.5H174.234z M178.74,348.486c-0.221,0.68-0.588,1.539-1.076,2.477H155.08
	c-1.071-2.643-1.473-5.318-1.607-7.234C157.86,344.5,169.798,346.77,178.74,348.486z"/>
</svg>
