<svg xmlns="http://www.w3.org/2000/svg" xmlns:xlink="http://www.w3.org/1999/xlink" version="1.1" x="0px" y="0px" viewBox="0 0 32 40" enable-background="new 0 0 32 32" xml:space="preserve"><path fill-rule="evenodd" clip-rule="evenodd" fill="#000000" d="M31.414,9.08L10.892,29.617c-0.255,0.255-0.567,0.396-0.89,0.486  v0.034L0,32l1.878-9.986h0.035c0.088-0.322,0.23-0.635,0.485-0.889L22.92,0.586c0.782-0.782,2.052-0.782,2.833,0l5.661,5.663  C32.195,7.031,32.195,8.298,31.414,9.08L31.414,9.08z M5.115,29.006c-0.604-0.793-1.312-1.5-2.104-2.104l-0.539,2.643L5.115,29.006  L5.115,29.006z M4.001,22.014l-0.777,3.828c1.148,0.806,2.145,1.802,2.95,2.949l3.828-0.776l0.005-0.017  c-1.115-2.713-3.276-4.874-5.989-5.989L4.001,22.014L4.001,22.014z M25.042,2.696c-0.39-0.39-1.024-0.39-1.414,0L4.979,21.342  c0.663,0.314,1.281,0.695,1.869,1.119l18.98-18.979L25.042,2.696L25.042,2.696z M26.535,4.189L7.639,23.082  c0.464,0.398,0.896,0.83,1.295,1.295L27.827,5.481L26.535,4.189L26.535,4.189z M29.288,6.942l-0.754-0.754L9.555,25.168  c0.415,0.576,0.791,1.178,1.101,1.824L29.288,8.358C29.681,7.967,29.681,7.334,29.288,6.942L29.288,6.942z"/><text x="0" y="47" fill="#000000" font-size="5px" font-weight="bold" font-family="'Helvetica Neue', Helvetica, Arial-Unicode, Arial, Sans-serif">Created by Muhamad Ulum</text><text x="0" y="52" fill="#000000" font-size="5px" font-weight="bold" font-family="'Helvetica Neue', Helvetica, Arial-Unicode, Arial, Sans-serif">from the Noun Project</text></svg>