<svg xmlns="http://www.w3.org/2000/svg" xmlns:xlink="http://www.w3.org/1999/xlink" version="1.1" x="0px" y="0px" viewBox="0 0 100 125" enable-background="new 0 0 100 100" xml:space="preserve"><path d="M65.454,3.129c-0.026-0.735-0.647-1.442-1.385-1.417L50.721,2.185c-0.738,0.026-1.307,0.858-1.281,1.597l0.321,9.046  l16.017-0.569L65.454,3.129z"/><rect x="51.172" y="17.86" transform="matrix(0.9994 -0.0353 0.0353 0.9994 -1.82 2.1228)" width="16.026" height="69.45"/><path d="M52.745,97.213c0.026,0.73,0.636,1.096,1.375,1.074l13.348-0.475c0.738-0.026,1.317-0.517,1.292-1.252l-0.149-4.216  l-16.016,0.563L52.745,97.213z"/><path d="M3,96.743c0,0.735,0.597,1.336,1.335,1.336h13.355c0.738,0,1.336-0.601,1.336-1.336V39.314H3V96.743z"/><path d="M19.027,13.938c0-0.738-0.598-1.335-1.336-1.335H4.336C3.598,12.603,3,13.201,3,13.938v9.349h16.027V13.938z"/><path d="M45.738,24.753c0-0.738-0.597-1.335-1.335-1.335H25.705c-0.738,0-1.335,0.597-1.335,1.335v9.219h21.369V24.753z"/><path d="M24.37,44.657v52.086c0,0.735,0.597,1.336,1.335,1.336h18.698c0.738,0,1.335-0.601,1.335-1.336V44.657H24.37z"/><path d="M81.102,96.926c0.104,0.735,0.777,1.241,1.513,1.138l13.22-1.879c0.73-0.104,1.252-0.673,1.153-1.408l-8.833-62.25  l-15.87,2.254L81.102,96.926z"/><path d="M86.09,17.979c-0.104-0.73-0.777-1.237-1.508-1.132l-13.225,1.875c-0.73,0.102-1.252,0.673-1.148,1.403l1.325,9.362  l15.87-2.251L86.09,17.979z"/><text x="0" y="115" fill="#000000" font-size="5px" font-weight="bold" font-family="'Helvetica Neue', Helvetica, Arial-Unicode, Arial, Sans-serif">Created by Derrick Snider</text><text x="0" y="120" fill="#000000" font-size="5px" font-weight="bold" font-family="'Helvetica Neue', Helvetica, Arial-Unicode, Arial, Sans-serif">from the Noun Project</text></svg>