<svg id="Capa_1" xmlns="http://www.w3.org/2000/svg" viewBox="-421 557.9 150 188"><style>.st0{fill:#A6CC2C;} .st1{fill:#FFFFFF;} .st2{fill:#FDCA49;}</style><path class="st0" d="M-344.8 596h74.6v150.4h-74.6z"/><path class="st1" d="M-318.2 582.5h7.4V600h-7.4zM-304.2 582.5h7.4V600h-7.4z"/><path class="st0" d="M-286.8 628.2h-41.4v-46.1l20.7-18.3 20.7 18.3z"/><path class="st1" d="M-332.1 610.8h7.4v17.5h-7.4zM-318.1 610.8h7.4v17.5h-7.4zM-304.3 610.8h7.4v17.5h-7.4zM-290.3 610.8h7.4v17.5h-7.4zM-359.1 704.9h7.4v17.5h-7.4zM-332.1 634.8h7.4v17.5h-7.4zM-318.1 634.8h7.4v17.5h-7.4zM-304.3 634.8h7.4v17.5h-7.4zM-290.3 634.8h7.4v17.5h-7.4zM-332.1 658.8h7.4v17.5h-7.4zM-318.1 658.8h7.4v17.5h-7.4zM-304.3 658.8h7.4v17.5h-7.4zM-290.3 658.8h7.4v17.5h-7.4zM-332.1 682.9h7.4v17.5h-7.4zM-318.1 682.9h7.4v17.5h-7.4zM-304.3 682.9h7.4v17.5h-7.4zM-290.3 682.9h7.4v17.5h-7.4zM-332.1 706.9h7.4v17.5h-7.4zM-318.1 706.9h7.4v17.5h-7.4zM-304.3 706.9h7.4v17.5h-7.4zM-290.3 706.9h7.4v17.5h-7.4z"/><path class="st2" d="M-344.7 746.4h-74.8v-91.3l37.4-50.6 37.4 50.6z"/><path class="st1" d="M-399 666.8v-.1c0-3-2.5-5.5-5.5-5.5s-5.5 2.5-5.5 5.5v17.5h11v-17.4zM-384.1 666.8v-.1c0-3-2.5-5.5-5.5-5.5s-5.5 2.5-5.5 5.5v17.5h11v-17.4zM-369.1 666.8v-.1c0-3-2.5-5.5-5.5-5.5s-5.5 2.5-5.5 5.5v17.5h11v-17.4zM-354.2 666.8v-.1c0-3-2.5-5.5-5.5-5.5s-5.5 2.5-5.5 5.5v17.5h11v-17.4zM-399 695.1v-.1c0-3-2.5-5.5-5.5-5.5s-5.5 2.5-5.5 5.5v17.5h11v-17.4zM-384.1 695.1v-.1c0-3-2.5-5.5-5.5-5.5s-5.5 2.5-5.5 5.5v17.5h11v-17.4zM-369.1 695.1v-.1c0-3-2.5-5.5-5.5-5.5s-5.5 2.5-5.5 5.5v17.5h11v-17.4zM-354.2 695.1v-.1c0-3-2.5-5.5-5.5-5.5s-5.5 2.5-5.5 5.5v17.5h11v-17.4z"/></svg>