<svg id="Layer_1" xmlns="http://www.w3.org/2000/svg" viewBox="-67 75.9 183.1 170.1"><style>.st0{fill:#ACB1B5;} .st1{fill:#F16962;} .st2{fill:#C9D1D9;} .st3{fill:#E0E0E0;} .st4{fill:#BBBFC3;} .st5{fill:#FFFFFF;} .st6{fill:#3A3A3A;}</style><path class="st0" d="M52 175.3c-8.8-13.3-10.2-14.8-24.7-6.3-13.3 7.8-14.5 10.7-8.9 20.4L-16.2 210l-1.5 4.8 1.7 2.9 4.9 1 2.3-3.2 3.2-.1 2.7-4.4 4.4-.5 1.8-3.2 2.7-.9 1.8.3 1.7-1 .9-2.6 4.1.3 8.9-5.3c6.6 10.7 7.8 11.2 22.1 2 13.7-8.8 16.2-10.1 6.5-24.8zm-5.8 7.9c-1.8 1.1-4.2.5-5.3-1.3-1.1-1.8-.5-4.2 1.3-5.3 1.8-1.1 4.2-.5 5.3 1.3s.5 4.2-1.3 5.3z"/><path class="st1" d="M-20.2 126.9l56.9 26.5c1.6.7 3.4.1 4.2-1.5l7.9-17c.7-1.6.1-3.4-1.5-4.2l-56.9-26.5c-1.6-.7-3.4-.1-4.2 1.5l-7.9 17c-.8 1.6-.1 3.5 1.5 4.2zm60.9 10.5c1.9.9 2.7 3.1 1.8 5-.9 1.9-3.1 2.7-5 1.8-1.9-.9-2.7-3.1-1.8-5 .9-1.9 3.1-2.7 5-1.8z"/><path class="st2" d="M24.3 138.1c-8.2.1-15.1 5.6-17.2 13.1l-40.9.3-3.7 3.4v3.4l3.8 3.3 3.6-1.6 2.8 1.5 4.6-2.4 4 1.8 3.2-1.8 2.8.6 1.4 1.2h2l2.1-1.8 3.4 2.3 10.9-.1c2.2 7.5 9.2 12.9 17.4 12.9 10-.1 18-8.2 17.9-18.2 0-9.9-8.1-17.9-18.1-17.9zm9.2 21.9c-2.1 0-3.9-1.7-3.9-3.8 0-2.1 1.7-3.9 3.8-3.9 2.1 0 3.9 1.7 3.9 3.8.1 2.1-1.6 3.9-3.8 3.9z"/><path class="st3" d="M-37.412 154.872l43.3-.334.023 2.9-43.3.334z"/><path class="st4" d="M-17.937 215.297l38.144-22.724 1.126 1.89-38.144 22.724z"/><path class="st5" d="M31.2 133.8c.6-1.3.2-2.5-1.1-3.1-1.7-.7-3.4.4-4.9 1.1.2-1.1 0-2.3-.7-3.3-.9-1.3-2.7-1.8-4.2-1.2-1.6.7-2 2.3-1.6 3.9.3 1 .7 1.8 1.1 2.8.6 1.6 1.2 5 1.5 4.9 3.6-.6 8.2-1.2 9.9-5.1zM-10.2 113.1l1.5.8-1.3 2.6 2.3 1.2 1.3-2.6 1.5.8-3.4 6.8-1.5-.8 1.4-2.8-2.3-1.2-1.4 2.8-1.5-.8 3.4-6.8zM-3.9 124.8c-.5-.2-.8-.5-1.1-.9-.3-.4-.5-.7-.6-1.2-.1-.4-.1-.9-.1-1.4.1-.5.2-1 .5-1.6.3-.6.6-1 1-1.4.4-.4.8-.6 1.2-.8.4-.2.9-.2 1.3-.2.5 0 .9.2 1.4.4s.8.5 1.1.9c.3.3.5.7.6 1.2.1.4.2.9.1 1.4-.1.5-.2 1-.5 1.6-.3.6-.6 1-1 1.4-.4.4-.8.6-1.2.8-.4.2-.9.2-1.3.2-.5 0-1-.1-1.4-.4zm.6-1.3c.5.2.9.2 1.4 0 .5-.3.9-.7 1.2-1.4.3-.7.5-1.3.4-1.8-.1-.5-.4-.9-.8-1.1-.5-.2-.9-.2-1.4 0-.5.2-.9.7-1.2 1.4-.3.7-.5 1.3-.4 1.8.1.5.4.9.8 1.1zM3.9 120.1l1.6.8-.4 3.6-.2 1.4 1-1 2.6-2.5 1.6.8-3.3 6.8-1.4-.7 1.2-2.5c.1-.2.2-.3.3-.5.1-.2.2-.4.4-.6.1-.2.2-.4.4-.6.1-.2.2-.4.3-.5l-1.3 1.3-2.5 2.1-.6-.3.3-3.1.2-1.8c-.1.2-.1.4-.2.6-.1.2-.2.4-.2.6l-.3.6-.3.6-1.2 2.5-1.4-.7 3.4-6.9zM11.8 124l4.2 2.1-.6 1.3-2.7-1.3-.7 1.4 2.3 1.1-.6 1.3-2.3-1.1-.8 1.6 2.8 1.4-.6 1.3-4.3-2.2 3.3-6.9z"/><path class="st0" d="M52 175.3c-8.8-13.3-10.2-14.8-24.7-6.3-13.3 7.8-14.5 10.7-8.9 20.4L-16.2 210l-1.5 4.8 1.7 2.9 4.9 1 2.3-3.2 3.2-.1 2.7-4.4 4.4-.5 1.8-3.2 2.7-.9 1.8.3 1.7-1 .9-2.6 4.1.3 8.9-5.3c6.6 10.7 7.8 11.2 22.1 2 13.7-8.8 16.2-10.1 6.5-24.8zm-5.8 7.9c-1.8 1.1-4.2.5-5.3-1.3-1.1-1.8-.5-4.2 1.3-5.3 1.8-1.1 4.2-.5 5.3 1.3s.5 4.2-1.3 5.3z"/><g><path class="st6" d="M36.3 154.6c-.5-1.5-2-2.6-3.7-2.6h-.4c-.8 4.3-.6 8.8.6 13.1 1.6-.8 2.9-1.3 4.1-1.6-.7-2.9-.9-5.9-.6-8.9zM42.5 140.9c.1-.1.2-.2.3-.4-.1-1.3-.9-2.5-2.1-3.1-.2-.1-.5-.2-.7-.3-.2.3-.5.5-.7.8-1.3 1.5-2.5 3-3.5 4.7 1.2 1.1 2.2 2.3 3.1 3.6.9-1.9 2.1-3.7 3.6-5.3zM79.8 136.1c-8.8-8.1-21.4-9.6-31.6-4.8.9.9 1.3 2.3.7 3.6l-.6 1.4c8.9-5.2 20.5-4.2 28.5 3.1 9.9 9 10.6 24.4 1.6 34.3-8.9 9.7-24 10.6-33.9 2-.9-.2-1.9-.1-2.8.4-.7.4-1.2 1-1.5 1.6.3.3.6.6.9.8 11.7 10.7 29.9 9.8 40.6-1.8s9.8-30-1.9-40.6z"/></g><path class="st4" d="M-17.432 215.017l38.144-22.724 1.126 1.89-38.144 22.724z"/></svg>