<svg xmlns="http://www.w3.org/2000/svg" viewBox="0 0 30 24"><path fill="#BCBCBC" d="M9.4,23.9c-3.5,0-6.7-1-9.4-2.7c0.5,0.1,1,0.1,1.5,0.1c2.9,0,5.5-1,7.6-2.6c-2.7,0-5-1.8-5.7-4.2c0.4,0.1,0.8,0.1,1.2,0.1c0.6,0,1.1-0.1,1.6-0.2c-2.8-0.6-4.9-3-4.9-5.9c0,0,0-0.1,0-0.1C2,8.9,3,9.1,4,9.2c-1.6-1.1-2.7-2.9-2.7-5c0-1.1,0.3-2.1,0.8-3c3,3.7,7.6,6.1,12.7,6.3C14.6,7,14.6,6.5,14.6,6c0-3.3,2.7-6,6.1-6c1.8,0,3.4,0.7,4.5,1.9c1.4-0.3,2.7-0.8,3.9-1.5c-0.5,1.4-1.4,2.6-2.7,3.3c1.2-0.1,2.4-0.5,3.5-1C29.1,4,28.1,5.1,26.9,6c0,0.3,0,0.5,0,0.8C26.9,14.7,20.7,23.9,9.4,23.9"/></svg>