<svg id="Layer_1" xmlns="http://www.w3.org/2000/svg" viewBox="-639 566.8 183.1 170.1"><style>.st0{opacity:0.4;} .st1{fill:#A4CB39;}</style><path class="st0 st1" d="M-548.2 695.9c-29.8 0-54-24.2-54-54s24.2-54 54-54 54 24.2 54 54-24.2 54-54 54zm0-101.5c-26.2 0-47.5 21.3-47.5 47.5s21.3 47.5 47.5 47.5 47.5-21.3 47.5-47.5-21.3-47.5-47.5-47.5z"/><path class="st1" d="M-548.2 696.3c-29.8 0-54-24.2-54-54 0-17.2 8.3-33.6 22.3-43.7l3.8 5.3c-12.3 8.9-19.6 23.3-19.6 38.4 0 26.2 21.3 47.5 47.5 47.5s46.6-21.3 46.6-47.5-19.4-47.5-48.4-47.5v-6.5c32 0 54.9 24.2 54.9 54s-23.3 54-53.1 54z"/><path class="st1" d="M-581.3 647.8c.4.5 1 .9 1.7 1.2.7.4 1.4.5 2.2.5.7 0 1.4-.1 2-.4.6-.3 1.1-.7 1.6-1.3.5-.6.8-1.4 1.1-2.4.3-1 .4-2.2.5-3.7-.3.4-.7.8-1.1 1.1-.4.3-.9.6-1.3.8-.4.2-.9.4-1.3.5-.4.1-.9.2-1.3.2-1.1 0-2.1-.2-3-.5-.9-.3-1.7-.8-2.3-1.4-.7-.6-1.2-1.4-1.6-2.4-.4-1-.6-2.1-.6-3.4 0-1.3.2-2.4.7-3.5.4-1 1-1.9 1.8-2.7.7-.7 1.6-1.3 2.6-1.7 1-.4 2.1-.6 3.2-.6 1.2 0 2.4.2 3.5.7 1.1.5 2.1 1.2 3 2.2.9 1 1.6 2.3 2.1 3.8.5 1.6.8 3.4.8 5.6 0 2.3-.3 4.3-.8 6-.6 1.7-1.3 3.1-2.2 4.2-.9 1.1-2 1.9-3.2 2.5-1.2.5-2.5.8-3.8.8-1.6 0-3.1-.3-4.3-.9-1.2-.6-2.2-1.3-3-2.1l3-3.1zm5.2-7.4c.6 0 1.3-.2 1.9-.5.7-.4 1.3-1 1.8-1.9-.3-2-.8-3.3-1.5-4.1-.7-.7-1.5-1.1-2.4-1.1-.8 0-1.6.3-2.2 1-.6.6-.9 1.7-.9 3.1 0 1.3.3 2.3.9 2.8.6.4 1.4.7 2.4.7zM-561.8 647.1c.8.7 1.6 1.3 2.5 1.7.9.5 1.9.7 2.9.7 1.3 0 2.3-.3 3.1-1 .8-.7 1.1-1.6 1.1-2.9 0-1.3-.4-2.2-1.1-2.9-.7-.7-1.7-1-2.8-1-.4 0-.7 0-1 .1-.3 0-.6.1-.8.2-.3.1-.6.2-.9.4-.3.2-.6.4-1 .6l-2.6-1.6.7-12.6h14.1v4.9h-9.2l-.4 4.7c.5-.2.9-.4 1.4-.5.4-.1.9-.1 1.4-.1 1.1 0 2.1.2 3 .5 1 .3 1.8.8 2.5 1.4.7.6 1.3 1.4 1.7 2.4.4 1 .6 2.1.6 3.5s-.3 2.6-.7 3.7c-.5 1.1-1.2 2-2 2.7-.8.7-1.8 1.3-2.9 1.7-1.1.4-2.3.6-3.5.6-2 0-3.8-.3-5.2-1-1.4-.7-2.6-1.5-3.6-2.5l2.7-3.7zM-537.2 644c-.9 0-1.8-.2-2.6-.5-.8-.4-1.5-.9-2-1.6-.6-.7-1-1.6-1.3-2.6-.3-1-.5-2.2-.5-3.4s.2-2.4.5-3.4.8-1.8 1.3-2.5c.6-.7 1.2-1.2 2-1.6.8-.4 1.6-.6 2.6-.6.9 0 1.8.2 2.6.6.8.4 1.5.9 2 1.6.6.7 1 1.5 1.3 2.5.3 1 .5 2.1.5 3.4s-.2 2.4-.5 3.4-.8 1.9-1.3 2.6c-.6.7-1.2 1.2-2 1.6-.8.3-1.7.5-2.6.5zm0-3.2c.7 0 1.2-.4 1.7-1.1.5-.7.7-2 .7-3.8 0-1.8-.2-3.1-.7-3.8-.5-.7-1-1.1-1.7-1.1s-1.2.4-1.7 1.1c-.5.7-.7 2-.7 3.8 0 1.8.2 3.1.7 3.8.5.7 1.1 1.1 1.7 1.1zm.9 13.5l13.8-26.6h3.3l-13.8 26.6h-3.3zm18 0c-.9 0-1.8-.2-2.6-.6-.8-.4-1.5-.9-2-1.6-.6-.7-1-1.6-1.3-2.6-.3-1-.5-2.2-.5-3.4 0-1.3.2-2.4.5-3.4s.8-1.8 1.3-2.5c.6-.7 1.2-1.2 2-1.6.8-.4 1.6-.5 2.6-.5.9 0 1.8.2 2.6.5.8.4 1.5.9 2 1.6.6.7 1 1.5 1.3 2.5.3 1 .5 2.1.5 3.4 0 1.3-.2 2.4-.5 3.4s-.8 1.9-1.3 2.6c-.6.7-1.2 1.2-2 1.6-.8.4-1.7.6-2.6.6zm0-3.2c.7 0 1.2-.4 1.7-1.1.5-.7.7-2 .7-3.8s-.2-3.1-.7-3.8-1-1.1-1.7-1.1-1.2.4-1.7 1.1c-.5.7-.7 2-.7 3.8s.2 3.1.7 3.8c.5.7 1.1 1.1 1.7 1.1z"/></svg>