<svg xmlns="http://www.w3.org/2000/svg" viewBox="198 -53 595 307"><title>A4</title><path fill="#FFF" d="M761 104.8c-1.1 0-1.9-.7-1.9-1.9V44c0-8.7-3.4-13-9.7-13-6.3 0-9.5 4.3-9.5 13v59c0 1.1-.8 1.9-1.9 1.9h-15.3c-1.1 0-1.9-.7-1.9-1.9V44c0-8.7-3.4-13-9.7-13-6.1 0-9.5 4.3-9.5 13v59c0 1.1-.8 1.9-1.9 1.9h-15.3c-1.1 0-1.9-.7-1.9-1.9V17.2c0-1.1.8-1.9 1.9-1.9h15.3c1.1 0 1.9.7 1.9 1.9v7h.2c3.2-6.1 8.6-10.6 17.1-10.6 8 0 14.2 3.2 17.3 9.8h.2c3.9-6.1 9.7-9.8 18.8-9.8 14.9 0 22.7 8.7 22.7 27.8V103c0 1.1-.7 1.9-1.9 1.9h-15M589.6 86.6c-3.7 11.5-13.2 18.3-27 18.3-13.6 0-23.1-6.9-26.8-18.3-1.5-4.6-2.1-9.4-2.1-28 0-18.5.6-23.3 2.1-28 3.7-11.5 13.2-18.3 26.8-18.3 13.8 0 23.3 6.9 27 18.3 1.5 4.6 2.1 9.4 2.1 28-.1 18.5-.6 23.3-2.1 28zM571.7 36c-1.3-3.9-4.3-6.3-9.1-6.3-4.7 0-7.6 2.4-8.9 6.3-.7 2.6-.9 4.4-.9 22.6s.2 20 .9 22.6c1.3 3.9 4.3 6.3 8.9 6.3 4.8 0 7.8-2.4 9.1-6.3.7-2.6.9-4.4.9-22.6 0-18.2-.2-20-.9-22.6zM520 31.4c.3-1.5.6-3 1-4.2 1.8-5.4 3.8-11.2 4.5-12.7.4-1.1-.2-1.7-1.3-2.1-.9-.2-1.7-.2-2.6-.2-26.6-.5-39.9 6.1-39.9 28.4v62.8c0 1.1.9 1.4 2 1.4h15.9c1.1 0 2.7-.3 2.7-1.4V48.8c0-11.9 3.4-16.9 14-16.9h3c.3 0 .7-.3.7-.5M663.7 86.6c-3.7 11.5-13.2 18.3-27 18.3-13.6 0-23.1-6.9-26.8-18.3-1.5-4.6-2-9.4-2-28 0-18.5.6-23.3 2-28 3.7-11.5 13.2-18.3 26.8-18.3 13.8 0 23.3 6.9 27 18.3 1.5 4.6 2.1 9.4 2.1 28-.1 18.5-.7 23.3-2.1 28zM645.8 36c-1.3-3.9-4.3-6.3-9.1-6.3-4.7 0-7.6 2.4-9 6.3-.7 2.6-.9 4.4-.9 22.6s.2 20 .9 22.6c1.3 3.9 4.3 6.3 9 6.3 4.8 0 7.8-2.4 9.1-6.3.7-2.6.9-4.4.9-22.6 0-18.2-.2-20-.9-22.6zM439.6 206.2c0-1.1.7-1.9 1.9-1.9h15.8c1.1 0 1.9.7 1.9 1.9v18.3c0 1.1-.7 1.9-1.9 1.9h-15.8c-1.1 0-1.9-.7-1.9-1.9v-18.3M560.2 226.4c-1.1 0-1.9-.7-1.9-1.9v-58.7c0-8.7-3.4-13-9.7-13-6.3 0-9.5 4.3-9.5 13v58.7c0 1.1-.7 1.9-1.9 1.9H522c-1.1 0-1.9-.7-1.9-1.9v-58.7c0-8.7-3.3-13-9.7-13-6.2 0-9.5 4.3-9.5 13v58.7c0 1.1-.7 1.9-1.9 1.9h-15.3c-1.1 0-1.9-.7-1.9-1.9V139c0-1.1.7-1.9 1.9-1.9H499c1.1 0 1.9.7 1.9 1.9v7h.2c3.2-6.1 8.6-10.6 17.1-10.6 8 0 14.2 3.2 17.3 9.8h.2c3.9-6.1 9.7-9.8 18.8-9.8 14.9 0 22.7 8.7 22.7 27.8v61.3c0 1.1-.7 1.9-1.9 1.9h-15.1M594.6 210.3c-1.5-4.4-2.1-9.4-2.1-28.5s.6-24.1 2.1-28.5c3.7-11.3 12.7-17.8 26.6-17.8 14.2 0 23.1 6.5 26.8 17.8 1.5 4.4 2.1 9.4 2.1 33.2 0 1.1-.7 1.8-1.9 1.8h-35.6c-.7 0-1.1.4-1.1 1.1 0 11.1.4 13.3.9 15.4 1.3 3.9 4.3 5.9 8.8 5.9 5.2 0 8.2-2.4 9.9-8 .4-1.1 1.1-1.5 2.2-1.3l14.3 2.8c1.1.2 1.5.9 1.3 2.2-2.4 13.3-13.2 21.7-28 21.7-13.8 0-22.6-6.5-26.3-17.8zm18.1-52c-.7 2-1.1 4.5-1.1 13.7 0 .7.4 1.1 1.1 1.1H630c.7 0 1.1-.4 1.1-1.1 0-9.3-.4-11.7-1.1-13.7-1.1-3.5-4.1-5.9-8.8-5.9-4.5-.1-7.4 2.3-8.5 5.9zM267.4 166.1l-52.3-30V15.3L320.2-45l105.2 60.4V136l-52.7 30.3v60.2l-52.5-30.1-52.8-30.3 35.1-20.1V65.7l35.1-20.2v80.3l35.1-20.1V-14.9L267.4 45.5v120.6zM267.4 166.1"/></svg>